<svg width="27" height="33" viewBox="0 0 27 33" fill="none" xmlns="http://www.w3.org/2000/svg">
<path opacity="0.8" d="M13.5 4.125C16.075 4.125 18.1875 6.2375 18.1875 8.8125V13.5H8.8125V8.8125C8.8125 6.2375 10.925 4.125 13.5 4.125ZM21.3125 13.5V8.8125C21.3125 4.5125 17.8 1 13.5 1C9.2 1 5.6875 4.5125 5.6875 8.8125V13.5H4.125C3.2962 13.5 2.50134 13.8292 1.91529 14.4153C1.32924 15.0013 1 15.7962 1 16.625V29.125C1 29.9538 1.32924 30.7487 1.91529 31.3347C2.50134 31.9208 3.2962 32.25 4.125 32.25H22.875C23.7038 32.25 24.4987 31.9208 25.0847 31.3347C25.6708 30.7487 26 29.9538 26 29.125V16.625C26 15.7962 25.6708 15.0013 25.0847 14.4153C24.4987 13.8292 23.7038 13.5 22.875 13.5H21.3125ZM4.125 16.625H22.875V29.125H4.125V16.625Z" fill="black" stroke="white" stroke-width="0.4"/>
</svg>
