<svg width="26" height="27" viewBox="0 0 26 27" fill="none" xmlns="http://www.w3.org/2000/svg">
<path opacity="0.8" d="M13 0C11.5716 0 10.1752 0.416716 8.98755 1.19745C7.79986 1.97819 6.87417 3.08788 6.32754 4.3862C5.7809 5.68451 5.63788 7.11314 5.91655 8.49143C6.19522 9.86972 6.88307 11.1358 7.89312 12.1294C8.90316 13.1231 10.19 13.7998 11.591 14.074C12.992 14.3482 14.4441 14.2075 15.7638 13.6697C17.0835 13.1319 18.2115 12.2212 19.0051 11.0527C19.7986 9.88428 20.2222 8.51055 20.2222 7.10526C20.2222 5.22083 19.4613 3.41358 18.1069 2.08108C16.7525 0.748588 14.9155 0 13 0ZM13 11.3684C12.1429 11.3684 11.3051 11.1184 10.5925 10.6499C9.87992 10.1815 9.3245 9.51569 8.99652 8.7367C8.66854 7.95771 8.58273 7.10053 8.74993 6.27356C8.91713 5.44659 9.32984 4.68697 9.93587 4.09076C10.5419 3.49454 11.314 3.08852 12.1546 2.92402C12.9952 2.75953 13.8665 2.84395 14.6583 3.16662C15.4501 3.48929 16.1269 4.03571 16.603 4.73678C17.0792 5.43785 17.3333 6.26209 17.3333 7.10526C17.3333 8.23592 16.8768 9.32027 16.0641 10.1198C15.2515 10.9193 14.1493 11.3684 13 11.3684ZM26 27V25.5789C26 22.9407 24.9347 20.4106 23.0385 18.5451C21.1423 16.6796 18.5705 15.6316 15.8889 15.6316H10.1111C7.42948 15.6316 4.85768 16.6796 2.96148 18.5451C1.06527 20.4106 0 22.9407 0 25.5789V27H2.88889V25.5789C2.88889 23.6945 3.6498 21.8873 5.00423 20.5548C6.35866 19.2223 8.19566 18.4737 10.1111 18.4737H15.8889C17.8043 18.4737 19.6413 19.2223 20.9958 20.5548C22.3502 21.8873 23.1111 23.6945 23.1111 25.5789V27H26Z" fill="black"/>
</svg>
