<svg width="30" height="25" viewBox="0 0 30 25" fill="none" xmlns="http://www.w3.org/2000/svg">
<path opacity="0.8" d="M0.9 8.08867V19.6667C0.9 20.9309 1.4022 22.1433 2.29612 23.0372C3.19005 23.9311 4.40247 24.4333 5.66667 24.4333H24.3333C25.5975 24.4333 26.81 23.9311 27.7039 23.0372C28.5978 22.1433 29.1 20.9309 29.1 19.6667V5.66667C29.1 4.40247 28.5978 3.19005 27.7039 2.29612C26.8099 1.4022 25.5975 0.9 24.3333 0.9H5.66667C4.40247 0.9 3.19005 1.4022 2.29612 2.29612C1.4022 3.19005 0.9 4.40247 0.9 5.66667V8.08867ZM5.66667 3.43333H24.3333C24.9257 3.43333 25.4937 3.66863 25.9125 4.08746C26.3314 4.50629 26.5667 5.07435 26.5667 5.66667V7.3336L15 13.5611L3.43333 7.3336V5.66667C3.43333 5.07435 3.66863 4.50629 4.08746 4.08746C4.50629 3.66863 5.07435 3.43333 5.66667 3.43333ZM3.43333 19.6667V10.2114L14.3996 16.1147C14.5841 16.2141 14.7904 16.2661 15 16.2661C15.2096 16.2661 15.4159 16.2141 15.6004 16.1147L26.5667 10.2114V19.6667C26.5667 20.259 26.3314 20.827 25.9125 21.2459C25.4937 21.6647 24.9257 21.9 24.3333 21.9H5.66667C5.07435 21.9 4.50629 21.6647 4.08746 21.2459C3.66863 20.827 3.43333 20.259 3.43333 19.6667Z" fill="black" stroke="black" stroke-width="0.2"/>
</svg>
