<svg width="36" height="36" viewBox="0 0 36 36" fill="none" xmlns="http://www.w3.org/2000/svg">
<path d="M17.5 4C16.0166 4 14.5666 4.44758 13.3332 5.28615C12.0999 6.12472 11.1386 7.31661 10.5709 8.7111C10.0032 10.1056 9.85472 11.64 10.1441 13.1204C10.4335 14.6008 11.1478 15.9606 12.1967 17.0279C13.2456 18.0952 14.582 18.8221 16.0368 19.1165C17.4917 19.411 18.9997 19.2599 20.3701 18.6822C21.7406 18.1046 22.9119 17.1265 23.736 15.8715C24.5601 14.6165 25 13.141 25 11.6316C25 9.60756 24.2098 7.66644 22.8033 6.23524C21.3968 4.80404 19.4891 4 17.5 4ZM17.5 16.2105C16.61 16.2105 15.74 15.942 14.9999 15.4388C14.2599 14.9357 13.6831 14.2206 13.3425 13.3839C13.0019 12.5472 12.9128 11.6265 13.0865 10.7383C13.2601 9.85004 13.6887 9.03415 14.318 8.39377C14.9474 7.7534 15.7492 7.31729 16.6221 7.14062C17.495 6.96394 18.3998 7.05461 19.2221 7.40118C20.0443 7.74775 20.7471 8.33465 21.2416 9.08765C21.7361 9.84066 22 10.7259 22 11.6316C22 12.846 21.5259 14.0107 20.682 14.8694C19.8381 15.7281 18.6935 16.2105 17.5 16.2105ZM31 33V31.4737C31 28.6401 29.8938 25.9225 27.9246 23.9188C25.9555 21.9151 23.2848 20.7895 20.5 20.7895H14.5C11.7152 20.7895 9.04451 21.9151 7.07538 23.9188C5.10625 25.9225 4 28.6401 4 31.4737V33H7V31.4737C7 29.4497 7.79018 27.5085 9.1967 26.0773C10.6032 24.6461 12.5109 23.8421 14.5 23.8421H20.5C22.4891 23.8421 24.3968 24.6461 25.8033 26.0773C27.2098 27.5085 28 29.4497 28 31.4737V33H31Z" fill="#737373"/>
</svg>
