<svg width="42" height="30" viewBox="0 0 42 30" fill="none" xmlns="http://www.w3.org/2000/svg">
<path d="M4.5 0C2.0325 0 0 2.0325 0 4.5V25.5C0 27.9675 2.0325 30 4.5 30H37.5C39.9675 30 42 27.9675 42 25.5V4.5C42 2.0325 39.9675 0 37.5 0H4.5ZM4.5 3H37.5C38.349 3 39 3.651 39 4.5V25.5C39 26.349 38.349 27 37.5 27H4.5C3.651 27 3 26.349 3 25.5V4.5C3 3.651 3.651 3 4.5 3ZM13.5 6C10.2 6 7.5 8.7 7.5 12C7.5 13.6695 8.2155 15.1755 9.3285 16.266C8.30749 16.955 7.47044 17.8832 6.8903 18.9698C6.31015 20.0563 6.00451 21.2683 6 22.5H9C9 19.998 10.998 18 13.5 18C16.002 18 18 19.998 18 22.5H21C20.9955 21.2683 20.6898 20.0563 20.1097 18.9698C19.5296 17.8832 18.6925 16.955 17.6715 16.266C18.7845 15.1755 19.5 13.671 19.5 12C19.5 8.7 16.8 6 13.5 6ZM24 7.5V10.5H36V7.5H24ZM13.5 9C15.1755 9 16.5 10.3245 16.5 12C16.5 13.6755 15.1755 15 13.5 15C11.8245 15 10.5 13.6755 10.5 12C10.5 10.3245 11.8245 9 13.5 9ZM24 13.5V16.5H36V13.5H24ZM24 19.5V22.5H31.5V19.5H24Z" fill="#2474F5"/>
</svg>
