<svg width="35" height="35" viewBox="0 0 35 35" fill="none" xmlns="http://www.w3.org/2000/svg">
<path fill-rule="evenodd" clip-rule="evenodd" d="M17.5 4.37498C15.1794 4.37498 12.9538 5.29685 11.3129 6.9378C9.67191 8.57874 8.75004 10.8043 8.75004 13.125V20.4166C8.75004 21.4495 8.47613 22.4541 7.96854 23.3333H27.0315C26.524 22.4541 26.25 21.4495 26.25 20.4166V13.125C26.25 10.8043 25.3282 8.57874 23.6872 6.9378C22.0463 5.29685 19.8207 4.37498 17.5 4.37498ZM32.0834 23.3333C31.3098 23.3333 30.568 23.026 30.021 22.479C29.474 21.9321 29.1667 21.1902 29.1667 20.4166V13.125C29.1667 10.0308 27.9375 7.06332 25.7496 4.8754C23.5617 2.68748 20.5942 1.45831 17.5 1.45831C14.4058 1.45831 11.4384 2.68748 9.25046 4.8754C7.06254 7.06333 5.83337 10.0308 5.83337 13.125V20.4166C5.83337 21.1902 5.52608 21.9321 4.9791 22.479C4.43212 23.026 3.69026 23.3333 2.91671 23.3333C2.11129 23.3333 1.45837 23.9862 1.45837 24.7916C1.45837 25.5971 2.11129 26.25 2.91671 26.25H32.0834V23.3333ZM14.2454 29.3635C14.9421 28.9594 15.8344 29.1965 16.2386 29.8932C16.3668 30.1142 16.5508 30.2977 16.7722 30.4252C16.9936 30.5527 17.2446 30.6198 17.5 30.6198C17.7555 30.6198 18.0065 30.5527 18.2279 30.4252C18.4493 30.2977 18.6333 30.1142 18.7615 29.8932C19.1656 29.1965 20.058 28.9594 20.7547 29.3635C21.4514 29.7677 21.6886 30.66 21.2844 31.3567C20.8998 32.0197 20.3478 32.57 19.6837 32.9526C19.0195 33.3351 18.2665 33.5365 17.5 33.5365C16.7336 33.5365 15.9806 33.3351 15.3164 32.9526C14.6523 32.57 14.1003 32.0197 13.7157 31.3567C13.3115 30.66 13.5487 29.7677 14.2454 29.3635Z" fill="#737373"/>
</svg>
