<svg width="35" height="35" viewBox="0 0 35 35" fill="none" xmlns="http://www.w3.org/2000/svg">
<path d="M17.5 25.5503C18.29 25.5503 18.9304 24.9099 18.9304 24.1199C18.9304 23.3299 18.29 22.6895 17.5 22.6895C16.71 22.6895 16.0696 23.3299 16.0696 24.1199C16.0696 24.9099 16.71 25.5503 17.5 25.5503Z" fill="white"/>
<path d="M17.5 18.9308C17.1206 18.9308 16.7568 18.7801 16.4885 18.5118C16.2203 18.2436 16.0696 17.8797 16.0696 17.5004V9.46559C16.0696 9.08622 16.2203 8.72238 16.4885 8.45412C16.7568 8.18586 17.1206 8.03516 17.5 8.03516C17.8794 8.03516 18.2432 8.18586 18.5115 8.45412C18.7797 8.72238 18.9304 9.08622 18.9304 9.46559V17.5004C18.9304 17.8797 18.7797 18.2436 18.5115 18.5118C18.2432 18.7801 17.8794 18.9308 17.5 18.9308V18.9308Z" fill="white"/>
<path d="M24.7435 35H10.2565L0 24.7435V10.2565L10.2565 0H24.7435L35 10.2565V24.7435L24.7435 35ZM11.4283 32.1543H23.6022L32.1848 23.5717V11.3978L23.5717 2.84565H11.3978L2.84565 11.4283V23.6022L11.4283 32.1543Z" fill="white"/>
</svg>
