<svg width="24" height="14" viewBox="0 0 24 14" fill="none" xmlns="http://www.w3.org/2000/svg">
<path d="M12.985 12.8989L22.8725 2.99389C23.0365 2.8312 23.1667 2.63765 23.2555 2.4244C23.3444 2.21114 23.3901 1.98241 23.3901 1.75139C23.3901 1.52037 23.3444 1.29163 23.2555 1.07838C23.1667 0.865124 23.0365 0.671572 22.8725 0.508887C22.5446 0.182948 22.1011 -5.63471e-08 21.6387 -7.6556e-08C21.1764 -9.67649e-08 20.7329 0.182948 20.405 0.508887L11.655 9.17139L2.99249 0.508886C2.66461 0.182947 2.22107 -9.25329e-07 1.75874 -9.45538e-07C1.29642 -9.65747e-07 0.852875 0.182947 0.52499 0.508886C0.359636 0.670962 0.228088 0.86424 0.13797 1.07752C0.0478496 1.2908 0.000953608 1.51985 -7.70595e-06 1.75139C0.000953588 1.98292 0.0478496 2.21197 0.13797 2.42525C0.228088 2.63853 0.359636 2.83181 0.52499 2.99389L10.4125 12.8989C10.5764 13.0765 10.7753 13.2183 10.9966 13.3152C11.218 13.4122 11.4571 13.4623 11.6987 13.4623C11.9404 13.4623 12.1795 13.4122 12.4008 13.3152C12.6222 13.2183 12.8211 13.0765 12.985 12.8989Z" fill="black" fill-opacity="0.5"/>
</svg>
