<svg width="14" height="24" viewBox="0 0 14 24" fill="none" xmlns="http://www.w3.org/2000/svg">
<path d="M12.8989 10.4051L2.99389 0.517647C2.8312 0.353622 2.63765 0.223433 2.4244 0.134588C2.21114 0.0457423 1.98241 0 1.75139 0C1.52037 0 1.29163 0.0457423 1.07838 0.134588C0.865124 0.223433 0.671572 0.353622 0.508887 0.517647C0.182948 0.845531 0 1.28907 0 1.7514C0 2.21372 0.182948 2.65726 0.508887 2.98515L9.17139 11.7351L0.508887 20.3976C0.182948 20.7255 0 21.1691 0 21.6314C0 22.0937 0.182948 22.5373 0.508887 22.8651C0.670963 23.0305 0.864241 23.162 1.07752 23.2522C1.2908 23.3423 1.51985 23.3892 1.75139 23.3901C1.98292 23.3892 2.21197 23.3423 2.42525 23.2522C2.63853 23.162 2.83181 23.0305 2.99389 22.8651L12.8989 12.9776C13.0765 12.8138 13.2183 12.6149 13.3152 12.3935C13.4122 12.1721 13.4623 11.9331 13.4623 11.6914C13.4623 11.4497 13.4122 11.2107 13.3152 10.9893C13.2183 10.7679 13.0765 10.569 12.8989 10.4051Z" fill="black" fill-opacity="0.5"/>
</svg>
