<svg width="24" height="14" viewBox="0 0 24 14" fill="none" xmlns="http://www.w3.org/2000/svg">
<path d="M10.4051 0.563393L0.517647 10.4684C0.353622 10.6311 0.223433 10.8246 0.134588 11.0379C0.0457424 11.2511 2.364e-08 11.4799 2.08851e-08 11.7109C1.81302e-08 11.9419 0.0457424 12.1706 0.134588 12.3839C0.223433 12.5972 0.353622 12.7907 0.517647 12.9534C0.845531 13.2793 1.28907 13.4623 1.7514 13.4623C2.21372 13.4623 2.65726 13.2793 2.98515 12.9534L11.7351 4.29089L20.3976 12.9534C20.7255 13.2793 21.1691 13.4623 21.6314 13.4623C22.0937 13.4623 22.5373 13.2793 22.8651 12.9534C23.0305 12.7913 23.162 12.598 23.2522 12.3848C23.3423 12.1715 23.3892 11.9424 23.3901 11.7109C23.3892 11.4794 23.3423 11.2503 23.2522 11.037C23.162 10.8237 23.0305 10.6305 22.8651 10.4684L12.9776 0.563393C12.8138 0.38576 12.6149 0.243994 12.3935 0.147032C12.1721 0.050069 11.9331 1.06327e-05 11.6914 1.06298e-05C11.4497 1.0627e-05 11.2107 0.050069 10.9893 0.147032C10.7679 0.243994 10.569 0.385759 10.4051 0.563393Z" fill="white"/>
</svg>
