<svg width="26" height="26" viewBox="0 0 26 26" fill="none" xmlns="http://www.w3.org/2000/svg">
<path d="M21.7344 10.2578C21.7344 9.94184 21.6328 9.68229 21.4297 9.47917L19.8893 7.95573C19.6749 7.74132 19.421 7.63411 19.1276 7.63411C18.8342 7.63411 18.5803 7.74132 18.3659 7.95573L11.4596 14.8451L7.63411 11.0195C7.41971 10.8051 7.1658 10.6979 6.8724 10.6979C6.57899 10.6979 6.32509 10.8051 6.11068 11.0195L4.57031 12.543C4.36719 12.7461 4.26563 13.0056 4.26563 13.3216C4.26563 13.6263 4.36719 13.8802 4.57031 14.0833L10.6979 20.2109C10.9123 20.4253 11.1662 20.5326 11.4596 20.5326C11.7643 20.5326 12.0239 20.4253 12.2383 20.2109L21.4297 11.0195C21.6328 10.8164 21.7344 10.5625 21.7344 10.2578ZM26 13C26 15.3585 25.4188 17.5336 24.2565 19.5254C23.0942 21.5171 21.5171 23.0942 19.5254 24.2565C17.5336 25.4188 15.3585 26 13 26C10.6415 26 8.46636 25.4188 6.47461 24.2565C4.48286 23.0942 2.90582 21.5171 1.74349 19.5254C0.581163 17.5336 0 15.3585 0 13C0 10.6415 0.581163 8.46636 1.74349 6.47461C2.90582 4.48286 4.48286 2.90582 6.47461 1.74349C8.46636 0.581163 10.6415 0 13 0C15.3585 0 17.5336 0.581163 19.5254 1.74349C21.5171 2.90582 23.0942 4.48286 24.2565 6.47461C25.4188 8.46636 26 10.6415 26 13Z" fill="#28A745"/>
</svg>
