<svg width="36" height="36" viewBox="0 0 36 36" fill="none" xmlns="http://www.w3.org/2000/svg">
<path fill-rule="evenodd" clip-rule="evenodd" d="M3 4.5C3 3.67157 3.67157 3 4.5 3H15C15.8284 3 16.5 3.67157 16.5 4.5V15C16.5 15.8284 15.8284 16.5 15 16.5H4.5C3.67157 16.5 3 15.8284 3 15V4.5ZM6 6V13.5H13.5V6H6Z" fill="#737373"/>
<path fill-rule="evenodd" clip-rule="evenodd" d="M19.5 4.5C19.5 3.67157 20.1716 3 21 3H31.5C32.3284 3 33 3.67157 33 4.5V15C33 15.8284 32.3284 16.5 31.5 16.5H21C20.1716 16.5 19.5 15.8284 19.5 15V4.5ZM22.5 6V13.5H30V6H22.5Z" fill="#737373"/>
<path fill-rule="evenodd" clip-rule="evenodd" d="M19.5 21C19.5 20.1716 20.1716 19.5 21 19.5H31.5C32.3284 19.5 33 20.1716 33 21V31.5C33 32.3284 32.3284 33 31.5 33H21C20.1716 33 19.5 32.3284 19.5 31.5V21ZM22.5 22.5V30H30V22.5H22.5Z" fill="#737373"/>
<path fill-rule="evenodd" clip-rule="evenodd" d="M3 21C3 20.1716 3.67157 19.5 4.5 19.5H15C15.8284 19.5 16.5 20.1716 16.5 21V31.5C16.5 32.3284 15.8284 33 15 33H4.5C3.67157 33 3 32.3284 3 31.5V21ZM6 22.5V30H13.5V22.5H6Z" fill="#737373"/>
</svg>
