<svg width="33" height="33" viewBox="0 0 33 33" fill="none" xmlns="http://www.w3.org/2000/svg">
<path d="M9.625 5.5C9.625 4.77065 9.91473 4.07118 10.4305 3.55546C10.9462 3.03973 11.6457 2.75 12.375 2.75H20.625C21.3543 2.75 22.0538 3.03973 22.5695 3.55546C23.0853 4.07118 23.375 4.77065 23.375 5.5V8.25H28.875C29.2397 8.25 29.5894 8.39487 29.8473 8.65273C30.1051 8.91059 30.25 9.26033 30.25 9.625C30.25 9.98967 30.1051 10.3394 29.8473 10.5973C29.5894 10.8551 29.2397 11 28.875 11H27.4051L26.213 27.6952C26.1636 28.3891 25.8532 29.0384 25.3442 29.5124C24.8352 29.9865 24.1654 30.25 23.4699 30.25H9.52875C8.83319 30.25 8.16347 29.9865 7.65447 29.5124C7.14547 29.0384 6.83501 28.3891 6.78562 27.6952L5.59625 11H4.125C3.76033 11 3.41059 10.8551 3.15273 10.5973C2.89487 10.3394 2.75 9.98967 2.75 9.625C2.75 9.26033 2.89487 8.91059 3.15273 8.65273C3.41059 8.39487 3.76033 8.25 4.125 8.25H9.625V5.5ZM12.375 8.25H20.625V5.5H12.375V8.25ZM8.35175 11L9.53013 27.5H23.4712L24.6496 11H8.35175ZM13.75 13.75C14.1147 13.75 14.4644 13.8949 14.7223 14.1527C14.9801 14.4106 15.125 14.7603 15.125 15.125V23.375C15.125 23.7397 14.9801 24.0894 14.7223 24.3473C14.4644 24.6051 14.1147 24.75 13.75 24.75C13.3853 24.75 13.0356 24.6051 12.7777 24.3473C12.5199 24.0894 12.375 23.7397 12.375 23.375V15.125C12.375 14.7603 12.5199 14.4106 12.7777 14.1527C13.0356 13.8949 13.3853 13.75 13.75 13.75ZM19.25 13.75C19.6147 13.75 19.9644 13.8949 20.2223 14.1527C20.4801 14.4106 20.625 14.7603 20.625 15.125V23.375C20.625 23.7397 20.4801 24.0894 20.2223 24.3473C19.9644 24.6051 19.6147 24.75 19.25 24.75C18.8853 24.75 18.5356 24.6051 18.2777 24.3473C18.0199 24.0894 17.875 23.7397 17.875 23.375V15.125C17.875 14.7603 18.0199 14.4106 18.2777 14.1527C18.5356 13.8949 18.8853 13.75 19.25 13.75Z" fill="black" fill-opacity="0.8"/>
</svg>
