<svg width="20" height="20" viewBox="0 0 20 20" fill="none" xmlns="http://www.w3.org/2000/svg">
<path d="M10 0C15.5234 0 20 4.47656 20 10C20 15.5234 15.5234 20 10 20C4.47656 20 0 15.5234 0 10C0 4.47656 4.47656 0 10 0ZM4.74219 9.63281L9.11719 14.0078C9.35938 14.2539 9.67969 14.375 10 14.375C10.3203 14.375 10.6398 14.2529 10.8836 14.0088L15.2586 9.63379C15.7469 9.14551 15.7469 8.35449 15.2586 7.86621C14.7703 7.37793 13.9793 7.37793 13.491 7.86621L10 11.3594L6.50859 7.86797C6.02031 7.37969 5.2293 7.37969 4.74102 7.86797C4.25273 8.35625 4.25391 9.14453 4.74219 9.63281Z" fill="#2474F5"/>
</svg>
