<svg width="26" height="26" viewBox="0 0 26 26" fill="none" xmlns="http://www.w3.org/2000/svg">
<path d="M13 0C15.3585 0 17.5336 0.581163 19.5254 1.74349C21.5171 2.90582 23.0942 4.48286 24.2565 6.47461C25.4188 8.46636 26 10.6415 26 13C26 15.3585 25.4188 17.5336 24.2565 19.5254C23.0942 21.5171 21.5171 23.0942 19.5254 24.2565C17.5336 25.4188 15.3585 26 13 26C10.6415 26 8.46636 25.4188 6.47461 24.2565C4.48286 23.0942 2.90582 21.5171 1.74349 19.5254C0.581163 17.5336 0 15.3585 0 13C0 10.6415 0.581163 8.46636 1.74349 6.47461C2.90582 4.48286 4.48286 2.90582 6.47461 1.74349C8.46636 0.581163 10.6415 0 13 0ZM15.1667 21.1081V17.8919C15.1667 17.7339 15.1159 17.6013 15.0143 17.4941C14.9128 17.3869 14.7886 17.3333 14.6419 17.3333H11.3919C11.2452 17.3333 11.1155 17.3898 11.0026 17.5026C10.8898 17.6155 10.8333 17.7452 10.8333 17.8919V21.1081C10.8333 21.2548 10.8898 21.3845 11.0026 21.4974C11.1155 21.6102 11.2452 21.6667 11.3919 21.6667H14.6419C14.7886 21.6667 14.9128 21.6131 15.0143 21.5059C15.1159 21.3987 15.1667 21.2661 15.1667 21.1081ZM15.1328 15.2852L15.4375 4.77344C15.4375 4.63802 15.3811 4.53646 15.2682 4.46875C15.1554 4.37847 15.02 4.33333 14.862 4.33333H11.138C10.98 4.33333 10.8446 4.37847 10.7318 4.46875C10.6189 4.53646 10.5625 4.63802 10.5625 4.77344L10.8503 15.2852C10.8503 15.398 10.9067 15.4967 11.0195 15.5814C11.1324 15.666 11.2678 15.7083 11.4258 15.7083H14.5573C14.7153 15.7083 14.8479 15.666 14.9551 15.5814C15.0623 15.4967 15.1215 15.398 15.1328 15.2852Z" fill="#DC3545"/>
</svg>
