<svg width="18" height="13" viewBox="0 0 18 13" fill="none" xmlns="http://www.w3.org/2000/svg">
<path d="M6.24951 6.36719C6.24951 6.94735 6.47998 7.50375 6.89022 7.91398C7.30045 8.32422 7.85685 8.55469 8.43701 8.55469C9.01718 8.55469 9.57358 8.32422 9.98381 7.91398C10.394 7.50375 10.6245 6.94735 10.6245 6.36719C10.6245 5.78703 10.394 5.23063 9.98381 4.82039C9.57358 4.41016 9.01718 4.17969 8.43701 4.17969C7.85685 4.17969 7.30045 4.41016 6.89022 4.82039C6.47998 5.23063 6.24951 5.78703 6.24951 6.36719V6.36719ZM16.9175 5.86328C15.0659 1.96289 12.2671 0 8.51514 0C4.76123 0 1.96435 1.96289 0.112784 5.86523C0.038517 6.02249 0 6.19425 0 6.36816C0 6.54208 0.038517 6.71383 0.112784 6.87109C1.96435 10.7715 4.76318 12.7344 8.51514 12.7344C12.269 12.7344 15.0659 10.7715 16.9175 6.86914C17.0679 6.55273 17.0679 6.18555 16.9175 5.86328V5.86328ZM8.43701 9.80469C6.53857 9.80469 4.99951 8.26562 4.99951 6.36719C4.99951 4.46875 6.53857 2.92969 8.43701 2.92969C10.3355 2.92969 11.8745 4.46875 11.8745 6.36719C11.8745 8.26562 10.3355 9.80469 8.43701 9.80469Z" fill="black"/>
</svg>
