<svg width="24" height="30" viewBox="0 0 24 30" fill="none" xmlns="http://www.w3.org/2000/svg">
<g clip-path="url(#clip0_1938_525)">
<path d="M7.125 14.25C6.82663 14.25 6.54048 14.3685 6.3295 14.5795C6.11853 14.7905 6 15.0766 6 15.375C6 15.6734 6.11853 15.9595 6.3295 16.1705C6.54048 16.3815 6.82663 16.5 7.125 16.5H16.875C17.1734 16.5 17.4595 16.3815 17.6705 16.1705C17.8815 15.9595 18 15.6734 18 15.375C18 15.0766 17.8815 14.7905 17.6705 14.5795C17.4595 14.3685 17.1734 14.25 16.875 14.25H7.125ZM7.125 18.375C6.82663 18.375 6.54048 18.4935 6.3295 18.7045C6.11853 18.9155 6 19.2016 6 19.5C6 19.7984 6.11853 20.0845 6.3295 20.2955C6.54048 20.5065 6.82663 20.625 7.125 20.625H16.875C17.1734 20.625 17.4595 20.5065 17.6705 20.2955C17.8815 20.0845 18 19.7984 18 19.5C18 19.2016 17.8815 18.9155 17.6705 18.7045C17.4595 18.4935 17.1734 18.375 16.875 18.375H7.125ZM7.125 22.5C6.82663 22.5 6.54048 22.6185 6.3295 22.8295C6.11853 23.0405 6 23.3266 6 23.625C6 23.9234 6.11853 24.2095 6.3295 24.4205C6.54048 24.6315 6.82663 24.75 7.125 24.75H16.875C17.1734 24.75 17.4595 24.6315 17.6705 24.4205C17.8815 24.2095 18 23.9234 18 23.625C18 23.3266 17.8815 23.0405 17.6705 22.8295C17.4595 22.6185 17.1734 22.5 16.875 22.5H7.125ZM14.3775 0.879L23.121 9.621C23.6836 10.1835 23.9998 10.9464 24 11.742V27C24 27.7956 23.6839 28.5587 23.1213 29.1213C22.5587 29.6839 21.7956 30 21 30H3C2.20435 30 1.44129 29.6839 0.878679 29.1213C0.31607 28.5587 0 27.7956 0 27V3C0 2.20435 0.31607 1.44129 0.878679 0.87868C1.44129 0.31607 2.20435 0 3 0H12.258C12.3 0 12.3405 0.00599995 12.381 0.0105C12.4103 0.0153898 12.4398 0.0188937 12.4695 0.0209999C12.792 0.0434999 13.11 0.105 13.4055 0.228C13.491 0.264 13.5735 0.312 13.6545 0.3585L13.7295 0.402L13.8 0.438C13.842 0.457106 13.8826 0.479161 13.9215 0.504C14.0385 0.5835 14.1435 0.678 14.25 0.774C14.2674 0.789665 14.2854 0.804675 14.304 0.819C14.3298 0.837399 14.3543 0.857441 14.3775 0.879ZM21 27.75C21.1989 27.75 21.3897 27.671 21.5303 27.5303C21.671 27.3897 21.75 27.1989 21.75 27V12H15C14.2043 12 13.4413 11.6839 12.8787 11.1213C12.3161 10.5587 12 9.79565 12 9V2.25H3C2.80109 2.25 2.61032 2.32902 2.46967 2.46967C2.32902 2.61032 2.25 2.80109 2.25 3V27C2.25 27.1989 2.32902 27.3897 2.46967 27.5303C2.61032 27.671 2.80109 27.75 3 27.75H21ZM20.067 9.75L14.25 3.9315V9C14.25 9.19891 14.329 9.38968 14.4697 9.53033C14.6103 9.67098 14.8011 9.75 15 9.75H20.067Z" fill="black" fill-opacity="0.8"/>
<path d="M14.4483 0.808236L14.4482 0.808283L23.1917 9.55028C23.7731 10.1315 24.0998 10.9199 24.1 11.742V27C24.1 27.8221 23.7734 28.6107 23.192 29.192C22.6107 29.7734 21.8221 30.1 21 30.1H3C2.17783 30.1 1.38933 29.7734 0.807969 29.192C0.226605 28.6107 -0.1 27.8221 -0.1 27V3C-0.1 2.17783 0.226606 1.38933 0.807968 0.807969C1.38933 0.226606 2.17783 -0.1 3 -0.1H12.258C12.2983 -0.1 12.3386 -0.0952087 12.3714 -0.0912945C12.3787 -0.0904292 12.3856 -0.0896067 12.392 -0.0888884L12.3975 -0.0882836L12.3975 -0.0881359C12.4237 -0.0837641 12.45 -0.0806324 12.4766 -0.0787496L12.4695 0.0209999M14.4483 0.808236L14.3169 0.699681L14.3163 0.699113C14.2108 0.604034 14.101 0.505089 13.9777 0.421288L13.9777 0.421254L13.9753 0.419717C13.9331 0.392758 13.8891 0.368774 13.8435 0.347938L13.7774 0.314154L13.7047 0.271996L13.7043 0.271775L13.692 0.264694C13.6157 0.220883 13.5319 0.172702 13.4443 0.135836L13.4439 0.135678C13.1359 0.00748361 12.8068 -0.0557138 12.4765 -0.0787576L12.4695 0.0209999M14.4483 0.808236L14.4456 0.805746M14.4483 0.808236L14.4456 0.805746M12.4695 0.0209999C12.792 0.0434999 13.11 0.105 13.4055 0.228L23.121 9.621C23.6836 10.1835 23.9998 10.9464 24 11.742V27C24 27.7956 23.6839 28.5587 23.1213 29.1213C22.5587 29.6839 21.7956 30 21 30H3C2.20435 30 1.44129 29.6839 0.878679 29.1213C0.31607 28.5587 0 27.7956 0 27V3C0 2.20435 0.31607 1.44129 0.878679 0.87868C1.44129 0.31607 2.20435 0 3 0H12.258C12.2918 0 12.3246 0.00388458 12.3573 0.00774671C12.3652 0.00868444 12.3731 0.00962084 12.381 0.0105C12.4103 0.0153898 12.4398 0.0188937 12.4695 0.0209999ZM14.4456 0.805746C14.4198 0.7818 14.3925 0.759439 14.3638 0.73882M14.4456 0.805746L14.3638 0.73882M14.3638 0.73882C14.3477 0.726371 14.3321 0.713331 14.317 0.699723L14.3638 0.73882ZM6.25879 14.5088L6.3295 14.5795L6.25878 14.5088C6.02907 14.7385 5.9 15.0501 5.9 15.375C5.9 15.6999 6.02907 16.0115 6.25878 16.2412C6.48853 16.471 6.80011 16.6 7.125 16.6H16.875C17.1999 16.6 17.5115 16.471 17.7412 16.2412C17.971 16.0115 18.1 15.6999 18.1 15.375C18.1 15.0501 17.971 14.7385 17.7412 14.5088C17.5115 14.279 17.1999 14.15 16.875 14.15H7.125C6.80011 14.15 6.48853 14.279 6.25879 14.5088ZM21.4596 27.4596L21.4596 27.4596C21.3377 27.5815 21.1724 27.65 21 27.65H3C2.82761 27.65 2.66228 27.5815 2.54039 27.4596L2.54037 27.4596C2.41849 27.3377 2.35 27.1724 2.35 27V3C2.35 2.82761 2.41848 2.66228 2.54038 2.54038C2.66228 2.41848 2.82761 2.35 3 2.35H11.9V9C11.9 9.82217 12.2266 10.6107 12.808 11.192C13.3893 11.7734 14.1778 12.1 15 12.1H21.65V27C21.65 27.1724 21.5815 27.3377 21.4596 27.4596ZM14.35 4.17297L19.8256 9.65H15C14.8276 9.65 14.6623 9.58151 14.5404 9.45963L14.5404 9.45961C14.4185 9.33772 14.35 9.17239 14.35 9V4.17297ZM7.125 18.275C6.80011 18.275 6.48853 18.404 6.25879 18.6338C6.02907 18.8635 5.9 19.1751 5.9 19.5C5.9 19.8249 6.02907 20.1365 6.25878 20.3662C6.48853 20.596 6.80011 20.725 7.125 20.725H16.875C17.1999 20.725 17.5115 20.596 17.7412 20.3662C17.971 20.1365 18.1 19.8249 18.1 19.5C18.1 19.1751 17.971 18.8635 17.7412 18.6338C17.5115 18.404 17.1999 18.275 16.875 18.275H7.125ZM7.125 22.4C6.80011 22.4 6.48853 22.529 6.25879 22.7588C6.02907 22.9885 5.9 23.3001 5.9 23.625C5.9 23.9499 6.02907 24.2615 6.25878 24.4912C6.48853 24.721 6.80011 24.85 7.125 24.85H16.875C17.1999 24.85 17.5115 24.721 17.7412 24.4912C17.971 24.2615 18.1 23.9499 18.1 23.625C18.1 23.3001 17.971 22.9885 17.7412 22.7588C17.5115 22.529 17.1999 22.4 16.875 22.4H7.125Z" stroke="black" stroke-opacity="0.8" stroke-width="0.2"/>
</g>
<defs>
<clipPath id="clip0_1938_525">
<rect width="24" height="30" fill="white"/>
</clipPath>
</defs>
</svg>
