<svg width="23" height="25" viewBox="0 0 23 25" fill="none" xmlns="http://www.w3.org/2000/svg">
<path d="M21.4962 2.435C21.1824 2.20883 20.8196 2.05983 20.4373 2.00011C20.0551 1.94038 19.6642 1.97161 19.2962 2.09125C18.3257 2.36417 17.3205 2.49387 16.3125 2.47625C14.8228 2.39539 13.3622 2.0314 12.0087 1.40375C10.3368 0.630494 8.52825 0.195889 6.68749 0.125C2.71374 0.125 1.18749 1.5 0.912493 1.6925C0.780917 1.82146 0.6766 1.97556 0.605739 2.14562C0.534878 2.31569 0.498917 2.49826 0.499993 2.6825V23.5C0.499993 23.8647 0.644859 24.2144 0.902721 24.4723C1.16058 24.7301 1.51032 24.875 1.87499 24.875C2.23967 24.875 2.5894 24.7301 2.84726 24.4723C3.10513 24.2144 3.24999 23.8647 3.24999 23.5V17.5875C4.34563 17.168 5.51526 16.9762 6.68749 17.0238C8.17718 17.1046 9.63782 17.4686 10.9912 18.0962C12.6632 18.8695 14.4717 19.3041 16.3125 19.375C17.9701 19.4376 19.619 19.1078 21.125 18.4125C21.5309 18.2218 21.875 17.9209 22.1181 17.5441C22.3613 17.1672 22.4936 16.7297 22.5 16.2812V4.40125C22.4995 4.01759 22.4083 3.63948 22.2339 3.29777C22.0594 2.95606 21.8067 2.66043 21.4962 2.435ZM19.75 16.0613C18.654 16.4792 17.4846 16.671 16.3125 16.625C14.821 16.546 13.3591 16.177 12.0087 15.5387C10.3336 14.7767 8.5264 14.347 6.68749 14.2738C5.52905 14.2538 4.3731 14.3879 3.24999 14.6725V3.4525C4.34307 3.02259 5.51394 2.82588 6.68749 2.875C8.17902 2.95404 9.64086 3.323 10.9912 3.96125C12.6664 4.72334 14.4736 5.15296 16.3125 5.22625C17.4716 5.24336 18.6278 5.10462 19.75 4.81375V16.0613Z" fill="black"/>
</svg>
