<svg width="20" height="20" viewBox="0 0 20 20" fill="none" xmlns="http://www.w3.org/2000/svg">
<path d="M10 0C11.8142 0 13.4874 0.447049 15.0195 1.34115C16.5516 2.23524 17.7648 3.44835 18.6589 4.98047C19.553 6.51259 20 8.18576 20 10C20 11.8142 19.553 13.4874 18.6589 15.0195C17.7648 16.5516 16.5516 17.7648 15.0195 18.6589C13.4874 19.553 11.8142 20 10 20C8.18576 20 6.51259 19.553 4.98047 18.6589C3.44835 17.7648 2.23524 16.5516 1.34115 15.0195C0.447049 13.4874 0 11.8142 0 10C0 8.18576 0.447049 6.51259 1.34115 4.98047C2.23524 3.44835 3.44835 2.23524 4.98047 1.34115C6.51259 0.447049 8.18576 0 10 0ZM11.6667 16.237V13.763C11.6667 13.6415 11.6276 13.5395 11.5495 13.457C11.4714 13.3746 11.3759 13.3333 11.263 13.3333H8.76302C8.65017 13.3333 8.55035 13.3767 8.46354 13.4635C8.37674 13.5503 8.33333 13.6502 8.33333 13.763V16.237C8.33333 16.3498 8.37674 16.4497 8.46354 16.5365C8.55035 16.6233 8.65017 16.6667 8.76302 16.6667H11.263C11.3759 16.6667 11.4714 16.6254 11.5495 16.543C11.6276 16.4605 11.6667 16.3585 11.6667 16.237ZM11.6406 11.7578L11.875 3.67187C11.875 3.56771 11.8316 3.48958 11.7448 3.4375C11.658 3.36806 11.5538 3.33333 11.4323 3.33333H8.56771C8.44618 3.33333 8.34201 3.36806 8.25521 3.4375C8.1684 3.48958 8.125 3.56771 8.125 3.67187L8.34635 11.7578C8.34635 11.8446 8.38976 11.9206 8.47656 11.9857C8.56337 12.0508 8.66753 12.0833 8.78906 12.0833H11.1979C11.3194 12.0833 11.4214 12.0508 11.5039 11.9857C11.5864 11.9206 11.6319 11.8446 11.6406 11.7578Z" fill="#DC3545"/>
</svg>
