<svg width="36" height="36" viewBox="0 0 36 36" fill="none" xmlns="http://www.w3.org/2000/svg">
<path d="M18.4695 3.021L18.473 2.97113C18.445 2.96913 18.417 2.96581 18.3892 2.96118L18.3892 2.96111L18.3865 2.96081C18.3794 2.96001 18.372 2.95913 18.3644 2.95823C18.3315 2.95433 18.2951 2.95 18.258 2.95H9C8.19109 2.95 7.41531 3.27134 6.84332 3.84332C6.27134 4.41531 5.95 5.19109 5.95 6V30C5.95 30.8089 6.27134 31.5847 6.84332 32.1567C7.41531 32.7287 8.19109 33.05 9 33.05H27C27.8089 33.05 28.5847 32.7287 29.1567 32.1567C29.7287 31.5847 30.05 30.8089 30.05 30V14.742C30.0498 13.9331 29.7284 13.1575 29.1563 12.5856L20.4129 3.84364L20.4129 3.84362L20.4115 3.84238C20.387 3.8196 20.3611 3.79841 20.3339 3.77893C20.3166 3.76551 20.2997 3.75146 20.2834 3.73681C20.1773 3.64119 20.0699 3.54437 19.9496 3.46264L19.9496 3.46263L19.9484 3.46186C19.9079 3.43596 19.8655 3.41293 19.8217 3.39296L19.7534 3.35808L19.6796 3.31525L19.6794 3.31514L19.6678 3.30846C19.5909 3.26431 19.5095 3.21755 19.4249 3.18192L19.4247 3.18184C19.123 3.05624 18.7994 2.99389 18.473 2.97112L18.4695 3.021ZM18.4695 3.021C18.792 3.0435 19.11 3.105 19.4055 3.228L29.121 12.621C29.6836 13.1835 29.9998 13.9464 30 14.742V30C30 30.7956 29.6839 31.5587 29.1213 32.1213C28.5587 32.6839 27.7956 33 27 33H9C8.20435 33 7.44129 32.6839 6.87868 32.1213C6.31607 31.5587 6 30.7956 6 30V6C6 5.20435 6.31607 4.44129 6.87868 3.87868C7.44129 3.31607 8.20435 3 9 3H18.258C18.2918 3 18.3246 3.00388 18.3572 3.00775C18.3652 3.00868 18.3731 3.00962 18.381 3.0105C18.4103 3.01539 18.4398 3.01889 18.4695 3.021ZM13.125 17.2C12.8134 17.2 12.5145 17.3238 12.2941 17.5442C12.0738 17.7645 11.95 18.0634 11.95 18.375C11.95 18.6866 12.0738 18.9855 12.2941 19.2058C12.5145 19.4262 12.8134 19.55 13.125 19.55H22.875C23.1866 19.55 23.4855 19.4262 23.7058 19.2058C23.9262 18.9855 24.05 18.6866 24.05 18.375C24.05 18.0634 23.9262 17.7645 23.7058 17.5442C23.4855 17.3238 23.1866 17.2 22.875 17.2H13.125ZM13.125 21.325C12.8134 21.325 12.5145 21.4488 12.2941 21.6692C12.0738 21.8895 11.95 22.1884 11.95 22.5C11.95 22.8116 12.0738 23.1105 12.2941 23.3308C12.5145 23.5512 12.8134 23.675 13.125 23.675H22.875C23.1866 23.675 23.4855 23.5512 23.7058 23.3308C23.9262 23.1105 24.05 22.8116 24.05 22.5C24.05 22.1884 23.9262 21.8895 23.7058 21.6692C23.4855 21.4488 23.1866 21.325 22.875 21.325H13.125ZM13.125 25.45C12.8134 25.45 12.5145 25.5738 12.2941 25.7941C12.0738 26.0145 11.95 26.3134 11.95 26.625C11.95 26.9366 12.0738 27.2355 12.2941 27.4559C12.5145 27.6762 12.8134 27.8 13.125 27.8H22.875C23.1866 27.8 23.4855 27.6762 23.7058 27.4559C23.9262 27.2355 24.05 26.9366 24.05 26.625C24.05 26.3134 23.9262 26.0145 23.7058 25.7941C23.4855 25.5738 23.1866 25.45 22.875 25.45H13.125ZM27.495 30.495C27.3637 30.6262 27.1856 30.7 27 30.7H9C8.81435 30.7 8.6363 30.6262 8.50502 30.495C8.37375 30.3637 8.3 30.1857 8.3 30V6C8.3 5.81435 8.37375 5.6363 8.50502 5.50503C8.6363 5.37375 8.81435 5.3 9 5.3H17.95V12C17.95 12.8089 18.2713 13.5847 18.8433 14.1567C19.4153 14.7287 20.1911 15.05 21 15.05H27.7V30C27.7 30.1857 27.6262 30.3637 27.495 30.495ZM20.3 12V7.05223L25.9463 12.7H21C20.8143 12.7 20.6363 12.6263 20.505 12.495C20.3737 12.3637 20.3 12.1857 20.3 12Z" fill="black" fill-opacity="0.8" stroke="black" stroke-width="0.1"/>
</svg>
