<svg width="64" height="64" viewBox="0 0 64 64" fill="none" xmlns="http://www.w3.org/2000/svg">
<path d="M32 0C14.3552 0 0 14.3552 0 32V45.2576C0 48.5344 2.8704 51.2 6.4 51.2H9.6C10.4487 51.2 11.2626 50.8629 11.8627 50.2627C12.4629 49.6626 12.8 48.8487 12.8 48V31.5424C12.8 30.6937 12.4629 29.8798 11.8627 29.2797C11.2626 28.6795 10.4487 28.3424 9.6 28.3424H6.6944C8.4736 15.9584 19.1296 6.4 32 6.4C44.8704 6.4 55.5264 15.9584 57.3056 28.3424H54.4C53.5513 28.3424 52.7374 28.6795 52.1373 29.2797C51.5371 29.8798 51.2 30.6937 51.2 31.5424V51.2C51.2 54.7296 48.3296 57.6 44.8 57.6H38.4V54.4H25.6V64H44.8C51.8592 64 57.6 58.2592 57.6 51.2C61.1296 51.2 64 48.5344 64 45.2576V32C64 14.3552 49.6448 0 32 0Z" fill="#2474F5"/>
</svg>
