<svg width="76" height="54" viewBox="0 0 76 54" fill="none" xmlns="http://www.w3.org/2000/svg">
<path d="M8.4375 0.125C4.01656 0.125 0.375 3.76656 0.375 8.1875V45.8125C0.375 50.2334 4.01656 53.875 8.4375 53.875H67.5625C71.9834 53.875 75.625 50.2334 75.625 45.8125V8.1875C75.625 3.76656 71.9834 0.125 67.5625 0.125H8.4375ZM8.4375 5.5H67.5625C69.0836 5.5 70.25 6.66638 70.25 8.1875V45.8125C70.25 47.3336 69.0836 48.5 67.5625 48.5H8.4375C6.91638 48.5 5.75 47.3336 5.75 45.8125V8.1875C5.75 6.66638 6.91638 5.5 8.4375 5.5ZM24.5625 10.875C18.65 10.875 13.8125 15.7125 13.8125 21.625C13.8125 24.6162 15.0944 27.3144 17.0886 29.2682C15.2592 30.5027 13.7595 32.1657 12.7201 34.1125C11.6807 36.0593 11.1331 38.2306 11.125 40.4375H16.5C16.5 35.9548 20.0798 32.375 24.5625 32.375C29.0452 32.375 32.625 35.9548 32.625 40.4375H38C37.9919 38.2306 37.4443 36.0593 36.4049 34.1125C35.3655 32.1657 33.8658 30.5027 32.0364 29.2682C34.0306 27.3144 35.3125 24.6189 35.3125 21.625C35.3125 15.7125 30.475 10.875 24.5625 10.875ZM43.375 13.5625V18.9375H64.875V13.5625H43.375ZM24.5625 16.25C27.5644 16.25 29.9375 18.6231 29.9375 21.625C29.9375 24.6269 27.5644 27 24.5625 27C21.5606 27 19.1875 24.6269 19.1875 21.625C19.1875 18.6231 21.5606 16.25 24.5625 16.25ZM43.375 24.3125V29.6875H64.875V24.3125H43.375ZM43.375 35.0625V40.4375H56.8125V35.0625H43.375Z" fill="#2474F5"/>
</svg>
