<svg width="38" height="38" viewBox="0 0 38 38" fill="none" xmlns="http://www.w3.org/2000/svg">
<path fill-rule="evenodd" clip-rule="evenodd" d="M19.0001 37.4001C14.1201 37.4001 9.44 35.4615 5.98933 32.0109C2.53866 28.5602 0.600098 23.8801 0.600098 19.0001C0.600098 14.1201 2.53866 9.44 5.98933 5.98933C9.44 2.53866 14.1201 0.600098 19.0001 0.600098C23.8801 0.600098 28.5602 2.53866 32.0109 5.98933C35.4615 9.44 37.4001 14.1201 37.4001 19.0001C37.4001 23.8801 35.4615 28.5602 32.0109 32.0109C28.5602 35.4615 23.8801 37.4001 19.0001 37.4001ZM19.0001 16.5368C18.3901 16.5368 17.8051 16.7791 17.3738 17.2105C16.9424 17.6418 16.7001 18.2268 16.7001 18.8368V28.0368C16.7001 28.6468 16.9424 29.2318 17.3738 29.6631C17.8051 30.0945 18.3901 30.3368 19.0001 30.3368C19.6101 30.3368 20.1951 30.0945 20.6264 29.6631C21.0578 29.2318 21.3001 28.6468 21.3001 28.0368V18.8368C21.3001 18.2268 21.0578 17.6418 20.6264 17.2105C20.1951 16.7791 19.6101 16.5368 19.0001 16.5368ZM19.0001 13.2501C19.6101 13.2501 20.1951 13.0078 20.6264 12.5764C21.0578 12.1451 21.3001 11.5601 21.3001 10.9501C21.3001 10.3401 21.0578 9.75509 20.6264 9.32375C20.1951 8.89242 19.6101 8.6501 19.0001 8.6501C18.3901 8.6501 17.8051 8.89242 17.3738 9.32375C16.9424 9.75509 16.7001 10.3401 16.7001 10.9501C16.7001 11.5601 16.9424 12.1451 17.3738 12.5764C17.8051 13.0078 18.3901 13.2501 19.0001 13.2501Z" fill="#A8C6FA"/>
</svg>
