<svg width="21" height="21" viewBox="0 0 21 21" fill="none" xmlns="http://www.w3.org/2000/svg">
<path d="M13.9863 0.85L13.9864 0.85C17.5128 0.85 20.4135 3.6152 20.4135 7.18125V7.18134C20.4124 8.88557 19.735 10.5197 18.5299 11.7248C17.3248 12.9298 15.6907 13.6073 13.9865 13.6083H13.9864C13.5242 13.6083 13.0677 13.5497 12.6319 13.4492C12.5832 13.7299 12.4464 13.9897 12.2389 14.1896C11.9875 14.4317 11.652 14.5669 11.3029 14.5667M13.9863 0.85L11.303 14.4167M13.9863 0.85C12.2821 0.85104 10.6479 1.5285 9.44286 2.73357C8.23779 3.93864 7.56033 5.57277 7.55929 7.27699V7.27708C7.55929 7.66039 7.60879 8.02748 7.66694 8.36086L7.66688 8.36087L7.66771 8.36493C7.67134 8.38281 7.67061 8.4013 7.66558 8.41884C7.66069 8.43587 7.65189 8.45152 7.63988 8.46453M13.9863 0.85L1.66638 14.439M11.3029 14.5667L11.303 14.4167M11.3029 14.5667H11.303V14.4167M11.3029 14.5667H9.77596M11.303 14.4167H9.77596V14.5667M9.77596 14.5667H9.62596V16.0937C9.62596 16.755 9.08929 17.2917 8.42804 17.2917H6.9V17.4417M9.77596 14.5667V16.0937C9.77596 16.8378 9.17213 17.4417 8.42804 17.4417H6.9M6.9 17.4417H6.75V18.4896C6.75 18.9344 6.57331 19.3609 6.25879 19.6755C5.94428 19.99 5.51771 20.1667 5.07292 20.1667H2.67708C1.75133 20.1667 1 19.4153 1 18.4896V16.4081C1.00028 15.7092 1.27812 15.0391 1.77242 14.5451M6.9 17.4417V18.4896C6.9 18.9742 6.7075 19.4389 6.36486 19.7815C6.02221 20.1242 5.55749 20.3167 5.07292 20.3167H2.67708C1.66849 20.3167 0.85 19.4982 0.85 18.4896V16.4081V16.408C0.850292 15.6694 1.14393 14.9612 1.66634 14.439L1.77242 14.5451M1.77242 14.5451L1.66638 14.439M1.77242 14.5451L7.74762 8.56892C7.77677 8.5382 7.79808 8.50091 7.80976 8.4602C7.82144 8.4195 7.82313 8.37658 7.81471 8.33508M13.9864 13.4583C13.531 13.4583 13.0803 13.3998 12.6494 13.2993L13.9864 13.4583ZM13.9864 13.4583C15.6508 13.4573 17.2469 12.7957 18.4238 11.6187C19.6008 10.4417 20.2624 8.84572 20.2635 7.18125L13.9864 13.4583ZM7.81471 8.33508C7.75721 8.00542 7.70929 7.64796 7.70929 7.27708L7.81471 8.33508ZM7.81471 8.33508L1.66638 14.439M1.66638 14.439L7.63988 8.46453M7.63988 8.46453C7.63952 8.46491 7.63917 8.4653 7.63881 8.46568L7.74762 8.56891L7.64155 8.46286L7.63988 8.46453ZM12.1242 11.4614L12.1241 11.4613L11.0625 12.2604H10.9125V12.2606V12.8292H9.38637C8.64228 12.8292 8.03846 13.433 8.03846 14.1771V15.7042H6.51137C5.76728 15.7042 5.16346 16.308 5.16346 17.0521V18.4896C5.16346 18.5133 5.15402 18.5361 5.13722 18.5529C5.12042 18.5697 5.09763 18.5792 5.07387 18.5792H2.67804C2.65428 18.5792 2.6315 18.5697 2.6147 18.5529C2.5979 18.5361 2.58846 18.5133 2.58846 18.4896V16.4081C2.58846 16.1306 2.69918 15.8631 2.89527 15.667C2.89527 15.667 2.89527 15.667 2.89527 15.667L8.87143 9.69178L8.8719 9.69132C9.08122 9.48017 9.23658 9.22169 9.32481 8.93777C9.41304 8.65384 9.43154 8.35283 9.37874 8.06024L9.37875 8.06024L9.37842 8.05851C9.32872 7.80045 9.3014 7.53858 9.29679 7.27583C9.29814 6.03284 9.79251 4.84112 10.6715 3.96217C11.5507 3.08289 12.743 2.58848 13.9865 2.5875C16.5921 2.58756 18.6759 4.6137 18.676 7.18113C18.675 8.42462 18.1806 9.61689 17.3013 10.4962C16.422 11.3754 15.2297 11.8698 13.9863 11.8708C13.3587 11.8708 12.7081 11.7127 12.1242 11.4614ZM16.377 6.69687C16.6298 6.44409 16.7718 6.10124 16.7718 5.74375C16.7718 5.38626 16.6298 5.04341 16.377 4.79063C16.1242 4.53785 15.7814 4.39583 15.4239 4.39583C15.0664 4.39583 14.7235 4.53785 14.4708 4.79063C14.218 5.04341 14.076 5.38626 14.076 5.74375C14.076 6.10124 14.218 6.44409 14.4708 6.69687C14.7235 6.94965 15.0664 7.09167 15.4239 7.09167C15.7814 7.09167 16.1242 6.94965 16.377 6.69687Z" fill="black" stroke="black" stroke-width="0.3"/>
</svg>
