<svg width="16" height="16" viewBox="0 0 16 16" fill="none" xmlns="http://www.w3.org/2000/svg">
<path d="M11 6C11.2652 6 11.5196 5.89464 11.7071 5.70711C11.8946 5.51957 12 5.26522 12 5C12 4.73478 11.8946 4.48043 11.7071 4.29289C11.5196 4.10536 11.2652 4 11 4C10.7348 4 10.4804 4.10536 10.2929 4.29289C10.1054 4.48043 10 4.73478 10 5C10 5.26522 10.1054 5.51957 10.2929 5.70711C10.4804 5.89464 10.7348 6 11 6V6Z" fill="black"/>
<path d="M7.5 12V11.5H8.5C8.63261 11.5 8.75979 11.4473 8.85355 11.3536C8.94732 11.2598 9 11.1326 9 11V10H10C10.8399 9.9998 11.6585 9.73521 12.3396 9.24373C13.0208 8.75225 13.5299 8.05883 13.7948 7.26178C14.0598 6.46473 14.0671 5.60449 13.8158 4.80305C13.5644 4.0016 13.0672 3.29961 12.3945 2.7966C11.7219 2.29359 10.9079 2.0151 10.0681 2.0006C9.22831 1.9861 8.40524 2.23633 7.71562 2.71582C7.02599 3.19531 6.5048 3.87972 6.22595 4.67201C5.94709 5.46431 5.92472 6.32428 6.162 7.13L2.292 11C2.10482 11.1877 1.99979 11.4419 2 11.707V13C2 13.2652 2.10536 13.5196 2.29289 13.7071C2.48043 13.8946 2.73478 14 3 14H5C5.26522 14 5.51957 13.8946 5.70711 13.7071C5.89464 13.5196 6 13.2652 6 13V12.5H7C7.13261 12.5 7.25979 12.4473 7.35355 12.3536C7.44732 12.2598 7.5 12.1326 7.5 12ZM7 6C7 5.40666 7.17595 4.82664 7.50559 4.33329C7.83524 3.83994 8.30377 3.45542 8.85195 3.22836C9.40013 3.0013 10.0033 2.94189 10.5853 3.05764C11.1672 3.1734 11.7018 3.45912 12.1213 3.87868C12.5409 4.29824 12.8266 4.83279 12.9424 5.41473C13.0581 5.99667 12.9987 6.59987 12.7716 7.14805C12.5446 7.69623 12.1601 8.16476 11.6667 8.49441C11.1734 8.82405 10.5933 9 10 9H8.5C8.36739 9 8.24021 9.05268 8.14645 9.14645C8.05268 9.24021 8 9.36739 8 9.5V10.5H7C6.86739 10.5 6.74022 10.5527 6.64645 10.6464C6.55268 10.7402 6.5 10.8674 6.5 11V11.5H5.5C5.36739 11.5 5.24022 11.5527 5.14645 11.6464C5.05268 11.7402 5 11.8674 5 12V13H3V11.707L7.089 7.618C7.15756 7.54951 7.20473 7.46258 7.22479 7.36778C7.24486 7.27298 7.23694 7.17439 7.202 7.084C7.072 6.748 7 6.384 7 6Z" fill="black"/>
</svg>
