<svg width="15" height="19" viewBox="0 0 15 19" fill="none" xmlns="http://www.w3.org/2000/svg">
<path d="M7.5 1.875C9.045 1.875 10.3125 3.1425 10.3125 4.6875V7.5H4.6875V4.6875C4.6875 3.1425 5.955 1.875 7.5 1.875ZM12.1875 7.5V4.6875C12.1875 2.1075 10.08 0 7.5 0C4.92 0 2.8125 2.1075 2.8125 4.6875V7.5H1.875C1.37772 7.5 0.900805 7.69754 0.549175 8.04918C0.197544 8.40081 0 8.87772 0 9.375V16.875C0 17.3723 0.197544 17.8492 0.549175 18.2008C0.900805 18.5525 1.37772 18.75 1.875 18.75H13.125C13.6223 18.75 14.0992 18.5525 14.4508 18.2008C14.8025 17.8492 15 17.3723 15 16.875V9.375C15 8.87772 14.8025 8.40081 14.4508 8.04918C14.0992 7.69754 13.6223 7.5 13.125 7.5H12.1875ZM1.875 9.375H13.125V16.875H1.875V9.375Z" fill="black"/>
</svg>
