<svg width="27" height="25" viewBox="0 0 27 25" fill="none" xmlns="http://www.w3.org/2000/svg">
<path d="M2 11.5669C1.99997 10.8165 2.18086 10.0773 2.52734 9.41174C2.87381 8.7462 3.37566 8.17402 3.99033 7.74371L10.9903 2.84371C11.7748 2.29456 12.7091 2 13.6667 2C14.6242 2 15.5586 2.29456 16.343 2.84371L23.343 7.74371C23.9577 8.17402 24.4595 8.7462 24.806 9.41174C25.1525 10.0773 25.3334 10.8165 25.3333 11.5669V20.8034C25.3333 21.4222 25.0875 22.0157 24.6499 22.4533C24.2123 22.8909 23.6188 23.1367 23 23.1367H4.33333C3.71449 23.1367 3.121 22.8909 2.68342 22.4533C2.24583 22.0157 2 21.4222 2 20.8034V11.5669Z" stroke="#2474F5" stroke-width="2.3" stroke-linecap="round" stroke-linejoin="round"/>
<path d="M2.58325 9.72009L10.7511 16.1379C11.5786 16.8 12.6068 17.1607 13.6666 17.1607C14.7264 17.1607 15.7546 16.8 16.5821 16.1379L24.7499 9.72009" stroke="#2474F5" stroke-width="2.3" stroke-linejoin="round"/>
</svg>
