<svg width="36" height="36" viewBox="0 0 36 36" fill="none" xmlns="http://www.w3.org/2000/svg">
<path fill-rule="evenodd" clip-rule="evenodd" d="M6 7.5C5.17843 7.5 4.5 8.17843 4.5 9V27C4.5 27.8216 5.17843 28.5 6 28.5H30C30.8216 28.5 31.5 27.8216 31.5 27V9C31.5 8.17843 30.8216 7.5 30 7.5H6ZM1.5 9C1.5 6.52157 3.52157 4.5 6 4.5H30C32.4784 4.5 34.5 6.52157 34.5 9V27C34.5 29.4784 32.4784 31.5 30 31.5H6C3.52157 31.5 1.5 29.4784 1.5 27V9Z" fill="#737373"/>
<path fill-rule="evenodd" clip-rule="evenodd" d="M1.77104 8.13981C2.24611 7.46114 3.1814 7.29609 3.86008 7.77116L17.9999 17.669L32.1397 7.77116C32.8184 7.29609 33.7537 7.46114 34.2287 8.13981C34.7038 8.81849 34.5388 9.75378 33.8601 10.2289L18.8601 20.7289C18.3436 21.0904 17.6562 21.0904 17.1397 20.7289L2.13969 10.2289C1.46102 9.75378 1.29597 8.81849 1.77104 8.13981Z" fill="#737373"/>
</svg>
