<svg width="30" height="25" viewBox="0 0 30 25" fill="none" xmlns="http://www.w3.org/2000/svg">
<path opacity="0.8" d="M0.85 8.08867V19.6667C0.85 20.9441 1.35747 22.1693 2.26077 23.0726C3.16407 23.9759 4.38921 24.4833 5.66667 24.4833H24.3333C25.6108 24.4833 26.8359 23.9759 27.7392 23.0726C28.6425 22.1693 29.15 20.9441 29.15 19.6667V5.66667C29.15 4.38921 28.6425 3.16407 27.7392 2.26077C26.8359 1.35747 25.6108 0.85 24.3333 0.85H5.66667C4.38921 0.85 3.16407 1.35747 2.26077 2.26077C1.35747 3.16407 0.85 4.38921 0.85 5.66667V8.08867ZM5.66667 3.48333H24.3333C24.9124 3.48333 25.4677 3.71336 25.8772 4.12282C26.2866 4.53227 26.5167 5.08761 26.5167 5.66667V7.30373L15 13.5043L3.48333 7.30373V5.66667C3.48333 5.08761 3.71336 4.53227 4.12282 4.12282C4.53227 3.71336 5.08761 3.48333 5.66667 3.48333ZM3.48333 19.6667V10.2951L14.3759 16.1587C14.5677 16.262 14.7822 16.3161 15 16.3161C15.2178 16.3161 15.4323 16.262 15.6241 16.1587L26.5167 10.2951V19.6667C26.5167 20.2457 26.2866 20.8011 25.8772 21.2105C25.4677 21.62 24.9124 21.85 24.3333 21.85H5.66667C5.08761 21.85 4.53227 21.62 4.12282 21.2105C3.71336 20.8011 3.48333 20.2457 3.48333 19.6667Z" fill="black" stroke="black" stroke-width="0.3"/>
</svg>
