<svg width="33" height="27" viewBox="0 0 33 27" fill="none" xmlns="http://www.w3.org/2000/svg">
<path fill-rule="evenodd" clip-rule="evenodd" d="M4.50024 3C3.67867 3 3.00024 3.67843 3.00024 4.5V22.5C3.00024 23.3216 3.67867 24 4.50024 24H28.5002C29.3218 24 30.0002 23.3216 30.0002 22.5V4.5C30.0002 3.67843 29.3218 3 28.5002 3H4.50024ZM0.000244141 4.5C0.000244141 2.02157 2.02181 0 4.50024 0H28.5002C30.9786 0 33.0002 2.02157 33.0002 4.5V22.5C33.0002 24.9784 30.9786 27 28.5002 27H4.50024C2.02181 27 0.000244141 24.9784 0.000244141 22.5V4.5Z" fill="black"/>
<path fill-rule="evenodd" clip-rule="evenodd" d="M0.271281 3.63981C0.746351 2.96114 1.68164 2.79609 2.36032 3.27116L16.5001 13.169L30.6399 3.27116C31.3186 2.79609 32.2539 2.96114 32.7289 3.63981C33.204 4.31849 33.039 5.25378 32.3603 5.7289L17.3603 16.2289C16.8438 16.5904 16.1564 16.5904 15.6399 16.2289L0.63993 5.7289C-0.0387395 5.25378 -0.203789 4.31849 0.271281 3.63981Z" fill="black"/>
</svg>
