<svg width="33" height="33" viewBox="0 0 33 33" fill="none" xmlns="http://www.w3.org/2000/svg">
<path d="M9.875 7.75C9.875 7.02065 10.1647 6.32118 10.6805 5.80546C11.1962 5.28973 11.8957 5 12.625 5H20.875C21.6043 5 22.3038 5.28973 22.8195 5.80546C23.3353 6.32118 23.625 7.02065 23.625 7.75V10.5H29.125C29.4897 10.5 29.8394 10.6449 30.0973 10.9027C30.3551 11.1606 30.5 11.5103 30.5 11.875C30.5 12.2397 30.3551 12.5894 30.0973 12.8473C29.8394 13.1051 29.4897 13.25 29.125 13.25H27.6551L26.463 29.9452C26.4136 30.6391 26.1032 31.2884 25.5942 31.7624C25.0852 32.2365 24.4154 32.5 23.7199 32.5H9.77875C9.08319 32.5 8.41347 32.2365 7.90447 31.7624C7.39547 31.2884 7.08501 30.6391 7.03562 29.9452L5.84625 13.25H4.375C4.01033 13.25 3.66059 13.1051 3.40273 12.8473C3.14487 12.5894 3 12.2397 3 11.875C3 11.5103 3.14487 11.1606 3.40273 10.9027C3.66059 10.6449 4.01033 10.5 4.375 10.5H9.875V7.75ZM12.625 10.5H20.875V7.75H12.625V10.5ZM8.60175 13.25L9.78013 29.75H23.7212L24.8996 13.25H8.60175ZM14 16C14.3647 16 14.7144 16.1449 14.9723 16.4027C15.2301 16.6606 15.375 17.0103 15.375 17.375V25.625C15.375 25.9897 15.2301 26.3394 14.9723 26.5973C14.7144 26.8551 14.3647 27 14 27C13.6353 27 13.2856 26.8551 13.0277 26.5973C12.7699 26.3394 12.625 25.9897 12.625 25.625V17.375C12.625 17.0103 12.7699 16.6606 13.0277 16.4027C13.2856 16.1449 13.6353 16 14 16ZM19.5 16C19.8647 16 20.2144 16.1449 20.4723 16.4027C20.7301 16.6606 20.875 17.0103 20.875 17.375V25.625C20.875 25.9897 20.7301 26.3394 20.4723 26.5973C20.2144 26.8551 19.8647 27 19.5 27C19.1353 27 18.7856 26.8551 18.5277 26.5973C18.2699 26.3394 18.125 25.9897 18.125 25.625V17.375C18.125 17.0103 18.2699 16.6606 18.5277 16.4027C18.7856 16.1449 19.1353 16 19.5 16Z" fill="#DC3545"/>
</svg>
