<svg width="18" height="18" viewBox="0 0 18 18" fill="none" xmlns="http://www.w3.org/2000/svg">
<path d="M8.66667 0C7.71439 0 6.78349 0.277811 5.9917 0.798302C5.19991 1.31879 4.58278 2.05859 4.21836 2.92413C3.85394 3.78968 3.75859 4.7421 3.94437 5.66095C4.13015 6.57981 4.58871 7.42384 5.26208 8.0863C5.93544 8.74875 6.79336 9.1999 7.72734 9.38267C8.66133 9.56544 9.62942 9.47163 10.5092 9.11311C11.389 8.75459 12.141 8.14746 12.67 7.36849C13.1991 6.58952 13.4815 5.6737 13.4815 4.73684C13.4815 3.48055 12.9742 2.27572 12.0713 1.38739C11.1683 0.499059 9.94364 0 8.66667 0ZM8.66667 7.57895C8.0953 7.57895 7.53676 7.41226 7.06169 7.09997C6.58661 6.78767 6.21633 6.3438 5.99768 5.82447C5.77903 5.30514 5.72182 4.73369 5.83329 4.18237C5.94476 3.63106 6.2199 3.12465 6.62391 2.72717C7.02793 2.32969 7.54268 2.05901 8.10307 1.94935C8.66346 1.83968 9.24432 1.89597 9.7722 2.11108C10.3001 2.32619 10.7513 2.69047 11.0687 3.15785C11.3861 3.62523 11.5556 4.17473 11.5556 4.73684C11.5556 5.49062 11.2512 6.21352 10.7094 6.74651C10.1676 7.27951 9.43285 7.57895 8.66667 7.57895ZM17.3333 18V17.0526C17.3333 15.2938 16.6232 13.6071 15.359 12.3634C14.0949 11.1197 12.3803 10.4211 10.5926 10.4211H6.74074C4.95299 10.4211 3.23845 11.1197 1.97432 12.3634C0.710183 13.6071 0 15.2938 0 17.0526V18H1.92593V17.0526C1.92593 15.7963 2.4332 14.5915 3.33615 13.7032C4.23911 12.8148 5.46377 12.3158 6.74074 12.3158H10.5926C11.8696 12.3158 13.0942 12.8148 13.9972 13.7032C14.9001 14.5915 15.4074 15.7963 15.4074 17.0526V18H17.3333Z" fill="black"/>
</svg>
