<svg width="51" height="51" viewBox="0 0 51 51" fill="none" xmlns="http://www.w3.org/2000/svg">
<path d="M25.8334 0.833313C12.2809 0.833313 0.833374 12.2808 0.833374 25.8333C0.833374 39.3858 12.2809 50.8333 25.8334 50.8333C39.3859 50.8333 50.8334 39.3858 50.8334 25.8333C50.8334 12.2808 39.3859 0.833313 25.8334 0.833313ZM25.8334 13.3333C30.1509 13.3333 33.3334 16.5133 33.3334 20.8333C33.3334 25.1533 30.1509 28.3333 25.8334 28.3333C21.5184 28.3333 18.3334 25.1533 18.3334 20.8333C18.3334 16.5133 21.5184 13.3333 25.8334 13.3333ZM13.0684 37.7633C15.3109 34.4633 19.0509 32.2633 23.3334 32.2633H28.3334C32.6184 32.2633 36.3559 34.4633 38.5984 37.7633C35.4034 41.1833 30.8709 43.3333 25.8334 43.3333C20.7959 43.3333 16.2634 41.1833 13.0684 37.7633Z" fill="#BEBEBE"/>
</svg>
