<svg width="45" height="45" viewBox="0 0 45 45" fill="none" xmlns="http://www.w3.org/2000/svg">
<path d="M44.2969 22.5C44.2969 34.5408 34.5372 44.2969 22.5 44.2969C10.4628 44.2969 0.703125 34.5408 0.703125 22.5C0.703125 10.4663 10.4628 0.703125 22.5 0.703125C34.5372 0.703125 44.2969 10.4663 44.2969 22.5ZM23.0849 7.91016C18.2951 7.91016 15.2402 9.92786 12.8413 13.5139C12.5306 13.9785 12.6345 14.605 13.08 14.9428L16.1297 17.2552C16.5872 17.6021 17.239 17.5196 17.5944 17.0687C19.1645 15.0773 20.241 13.9225 22.6308 13.9225C24.4263 13.9225 26.6472 15.0781 26.6472 16.8192C26.6472 18.1354 25.5606 18.8114 23.7878 19.8054C21.7202 20.9644 18.9844 22.4069 18.9844 26.0156V26.3672C18.9844 26.9496 19.4566 27.4219 20.0391 27.4219H24.9609C25.5434 27.4219 26.0156 26.9496 26.0156 26.3672V26.25C26.0156 23.7485 33.3269 23.6443 33.3269 16.875C33.3269 11.7772 28.039 7.91016 23.0849 7.91016V7.91016ZM22.5 29.707C20.2707 29.707 18.457 31.5207 18.457 33.75C18.457 35.9793 20.2707 37.793 22.5 37.793C24.7293 37.793 26.543 35.9793 26.543 33.75C26.543 31.5207 24.7293 29.707 22.5 29.707Z" fill="black" fill-opacity="0.25"/>
</svg>
