<svg width="33" height="33" viewBox="0 0 33 33" fill="none" xmlns="http://www.w3.org/2000/svg">
<path fill-rule="evenodd" clip-rule="evenodd" d="M16.5 4.125C9.66548 4.125 4.125 9.66548 4.125 16.5C4.125 23.3345 9.66548 28.875 16.5 28.875C23.3345 28.875 28.875 23.3345 28.875 16.5C28.875 9.66548 23.3345 4.125 16.5 4.125ZM1.375 16.5C1.375 8.14669 8.14669 1.375 16.5 1.375C24.8533 1.375 31.625 8.14669 31.625 16.5C31.625 24.8533 24.8533 31.625 16.5 31.625C8.14669 31.625 1.375 24.8533 1.375 16.5Z" fill="black"/>
<path fill-rule="evenodd" clip-rule="evenodd" d="M16.8549 11.0334C16.2148 10.9236 15.5565 11.0439 14.9966 11.373C14.4367 11.7021 14.0113 12.2186 13.7958 12.8313C13.5438 13.5476 12.7588 13.9241 12.0425 13.6721C11.3261 13.4201 10.9497 12.6351 11.2017 11.9187C11.6327 10.6934 12.4834 9.66024 13.6032 9.00213C14.7231 8.34401 16.0396 8.10344 17.3198 8.32302C18.6 8.54261 19.7612 9.20818 20.5976 10.2018C21.434 11.1953 21.8917 12.4527 21.89 13.7513C21.8896 15.2227 21.1157 16.3474 20.3158 17.1138C19.5156 17.8805 18.5667 18.4125 17.8968 18.7334C17.8433 18.759 17.8044 18.7957 17.7829 18.8273C17.7729 18.8421 17.7684 18.853 17.7666 18.8587C17.765 18.8637 17.765 18.8657 17.765 18.866V19.25C17.765 20.0094 17.1494 20.625 16.39 20.625C15.6306 20.625 15.015 20.0094 15.015 19.25V18.866C15.015 17.6701 15.7693 16.7033 16.7087 16.2533C17.2539 15.9922 17.9111 15.6092 18.4133 15.1281C18.9155 14.647 19.14 14.1914 19.14 13.75L19.14 13.748C19.141 13.0985 18.9121 12.4697 18.4938 11.9729C18.0756 11.476 17.495 11.1432 16.8549 11.0334Z" fill="black"/>
<path d="M17.875 23.375C17.875 24.1344 17.2594 24.75 16.5 24.75C15.7406 24.75 15.125 24.1344 15.125 23.375C15.125 22.6156 15.7406 22 16.5 22C17.2594 22 17.875 22.6156 17.875 23.375Z" fill="black"/>
</svg>
