<svg width="103" height="103" viewBox="0 0 103 103" fill="none" xmlns="http://www.w3.org/2000/svg">
<g clip-path="url(#clip0_107_308)">
<path d="M102.92 7.41525L90.0446 90.9217C89.8109 92.4426 89.0403 93.8295 87.8723 94.8313C86.7043 95.8331 85.2162 96.3835 83.6775 96.3829C82.835 96.3829 82.0039 96.219 81.2051 95.8856L56.5414 85.6057L46.3098 100.953C45.5252 102.296 44.2176 103 42.8094 103C40.4959 103 38.625 101.129 38.625 98.8157V79.467C38.625 78.0356 39.1022 76.6445 39.9813 75.516L83.6875 19.3126L24.6034 72.4823L3.96111 63.8721C1.69752 62.9266 0.163382 60.7942 0.0125032 58.1588C-0.138376 55.5235 1.11291 53.387 3.24332 52.17L93.3683 0.851013C95.5189 -0.377946 98.1723 -0.264887 100.208 1.13386C102.244 2.53261 103.302 4.97303 102.92 7.41525Z" fill="#E0E9FC"/>
</g>
<defs>
<clipPath id="clip0_107_308">
<rect width="103" height="103" fill="white"/>
</clipPath>
</defs>
</svg>
