<svg width="60" height="63" viewBox="0 0 60 63" fill="none" xmlns="http://www.w3.org/2000/svg">
<path d="M11.1875 40.8749C13.9222 40.8594 16.5524 39.8229 18.5625 37.9687L38.125 49.1562C37.8758 50.0196 37.7496 50.9138 37.75 51.8124C37.7299 54.3485 38.5843 56.8141 40.1693 58.7939C41.7543 60.7738 43.9731 62.147 46.4521 62.6824C48.9311 63.2178 51.5189 62.8827 53.7797 61.7334C56.0405 60.5842 57.8363 58.691 58.8646 56.3727C59.893 54.0544 60.0911 51.4526 59.4256 49.0053C58.7602 46.558 57.2718 44.4147 55.211 42.9364C53.1503 41.4581 50.6431 40.735 48.1116 40.8889C45.5802 41.0427 43.179 42.0642 41.3125 43.7812L21.75 32.5937C21.9861 31.8236 22.1123 31.0241 22.125 30.2187L41.3437 19.2187C43.2002 20.8963 45.577 21.8846 48.0756 22.0178C50.5742 22.1509 53.0427 21.4209 55.0669 19.9501C57.0911 18.4793 58.5481 16.3572 59.1934 13.9397C59.8387 11.5222 59.6331 8.9563 58.6111 6.67238C57.5891 4.38845 55.8129 2.52539 53.5803 1.39566C51.3477 0.265925 48.7945 -0.0617728 46.349 0.467525C43.9035 0.996823 41.7143 2.35092 40.1487 4.30273C38.583 6.25453 37.7361 8.68533 37.75 11.1874C37.7606 12.0853 37.8866 12.978 38.125 13.8437L20.3438 23.9999C19.3135 22.4061 17.8862 21.1077 16.2021 20.2325C14.5181 19.3572 12.6353 18.9353 10.7388 19.008C8.84234 19.0808 6.99742 19.6458 5.38541 20.6475C3.7734 21.6492 2.44979 23.0531 1.54466 24.7213C0.639538 26.3894 0.184057 28.2644 0.22299 30.1619C0.261923 32.0593 0.793929 33.914 1.76672 35.5437C2.73951 37.1733 4.1196 38.5217 5.77134 39.4565C7.42308 40.3912 9.28962 40.88 11.1875 40.8749ZM48.6875 47.1249C49.6146 47.1249 50.5209 47.3999 51.2917 47.9149C52.0626 48.43 52.6634 49.1621 53.0182 50.0186C53.373 50.8751 53.4658 51.8176 53.2849 52.7269C53.1041 53.6362 52.6576 54.4714 52.0021 55.127C51.3465 55.7826 50.5113 56.229 49.602 56.4099C48.6927 56.5907 47.7502 56.4979 46.8937 56.1431C46.0371 55.7883 45.305 55.1875 44.79 54.4167C44.2749 53.6458 44 52.7395 44 51.8124C44 50.5692 44.4939 49.377 45.3729 48.4979C46.252 47.6188 47.4443 47.1249 48.6875 47.1249ZM48.6875 6.49995C49.6146 6.49995 50.5209 6.77486 51.2917 7.28993C52.0626 7.805 52.6634 8.53709 53.0182 9.39362C53.373 10.2501 53.4658 11.1926 53.2849 12.1019C53.1041 13.0112 52.6576 13.8465 52.0021 14.502C51.3465 15.1576 50.5113 15.604 49.602 15.7849C48.6927 15.9657 47.7502 15.8729 46.8937 15.5181C46.0371 15.1633 45.305 14.5625 44.79 13.7917C44.2749 13.0208 44 12.1145 44 11.1874C44 9.94424 44.4939 8.75196 45.3729 7.87288C46.252 6.99381 47.4443 6.49995 48.6875 6.49995ZM11.1875 25.2499C12.1146 25.2499 13.0209 25.5249 13.7917 26.0399C14.5626 26.555 15.1634 27.2871 15.5182 28.1436C15.873 29.0001 15.9658 29.9426 15.7849 30.8519C15.6041 31.7612 15.1576 32.5965 14.5021 33.252C13.8465 33.9076 13.0113 34.354 12.102 34.5349C11.1927 34.7157 10.2502 34.6229 9.39367 34.2681C8.53714 33.9133 7.80505 33.3125 7.28999 32.5417C6.77492 31.7708 6.5 30.8645 6.5 29.9374C6.5 28.6942 6.99386 27.502 7.87293 26.6229C8.75201 25.7438 9.9443 25.2499 11.1875 25.2499Z" fill="#2474F5"/>
</svg>
