<svg width="20" height="20" viewBox="0 0 20 20" fill="none" xmlns="http://www.w3.org/2000/svg">
<path d="M10 20C4.47656 20 7.82707e-07 15.5234 1.74846e-06 10C2.7142e-06 4.47656 4.47657 7.82707e-07 10 1.74846e-06C15.5234 2.7142e-06 20 4.47657 20 10C20 15.5234 15.5234 20 10 20ZM15.2578 10.3672L10.8828 5.99219C10.6406 5.7461 10.3203 5.625 10 5.625C9.67969 5.625 9.36016 5.74707 9.11641 5.99121L4.74141 10.3662C4.25313 10.8545 4.25313 11.6455 4.74141 12.1338C5.22969 12.6221 6.0207 12.6221 6.50899 12.1338L10 8.64063L13.4914 12.132C13.9797 12.6203 14.7707 12.6203 15.259 12.132C15.7473 11.6438 15.7461 10.8555 15.2578 10.3672Z" fill="#2474F5"/>
</svg>
