<?xml version="1.0" encoding="utf-8"?>
<!-- Generator: Adobe Illustrator 16.0.0, SVG Export Plug-In . SVG Version: 6.00 Build 0)  -->
<!DOCTYPE svg PUBLIC "-//W3C//DTD SVG 1.1//EN" "http://www.w3.org/Graphics/SVG/1.1/DTD/svg11.dtd">
<svg version="1.1" id="Untitled-1blue_xA0_Image_1_"
	 xmlns="http://www.w3.org/2000/svg" xmlns:xlink="http://www.w3.org/1999/xlink" x="0px" y="0px" width="124.996px"
	 height="124.996px" viewBox="0 0 124.996 124.996" enable-background="new 0 0 124.996 124.996" xml:space="preserve">
<g>
	<g>
		<path fill-rule="evenodd" clip-rule="evenodd" fill="none" d="M125.236,125.236c-41.668,0-83.327,0-124.977,0
			c0-41.668,0-83.327,0-124.977c41.668,0,83.327,0,124.977,0C125.236,41.927,125.236,83.586,125.236,125.236z M97.511,19.888
			c-0.266-0.192-0.537-0.378-0.799-0.578C84.967,10.357,71.749,6.477,57.042,7.972c-12.664,1.287-23.682,6.36-32.688,15.336
			C10.545,37.072,5.117,53.796,8.637,72.942c5.001,27.206,29.041,46.029,56.671,44.825c13.785-0.601,25.709-5.794,35.642-15.355
			c16.869-16.239,21.613-40.911,12.059-62.287c-0.465-1.042-1.071-2.115-1.883-2.89c-1.982-1.892-4.905-1.932-7.107-0.301
			c-2.109,1.563-2.847,4.405-1.663,6.941c3.861,8.274,5.049,16.902,3.669,25.922C103,89.565,85.902,105.263,65.871,106.443
			c-12.969,0.765-24.275-3.304-33.658-12.354c-13.573-13.092-17.139-33.84-8.788-50.618c10.702-21.502,35.909-30.455,57.769-20.505
			c2.951,1.343,5.717,2.997,8.184,4.963c-3.252,3.253-6.426,6.429-9.633,9.637c-0.104-0.057-0.292-0.145-0.467-0.256
			c-6.922-4.402-14.424-5.812-22.473-4.309C40.815,35.985,29.8,52.11,32.822,68.087c3.118,16.485,18.09,27.138,34.688,24.678
			c15.162-2.246,26.497-16.217,25.547-31.487c-0.211-3.4-2.558-5.637-5.813-5.542c-3.13,0.091-5.466,2.671-5.45,5.965
			c0.006,1.289,0.056,2.602-0.154,3.863c-1.807,10.836-11.216,17.711-22.066,16.177c-10.08-1.426-17.576-11.514-16.014-21.551
			c1.691-10.872,11.062-17.886,22.006-16.42c2.123,0.284,4.176,0.892,6.195,2.182c-0.347,0.273-0.597,0.433-0.802,0.637
			c-4.017,3.996-8.035,7.99-12.037,12.001c-2.113,2.119-2.421,5.097-0.81,7.393c2.085,2.97,6.18,3.219,8.908,0.494
			c6.544-6.536,13.059-13.102,19.6-19.641c9.635-9.632,19.282-19.25,28.923-28.876c0.323-0.323,0.66-0.641,0.936-1.003
			c1.796-2.36,1.448-5.736-0.775-7.671c-2.278-1.983-5.524-1.91-7.693,0.22C104.531,12.919,101.078,16.358,97.511,19.888z"/>
		<path fill-rule="evenodd" clip-rule="evenodd" fill="#2474F5" d="M97.511,19.888c3.566-3.53,7.02-6.969,10.498-10.382
			c2.169-2.129,5.415-2.203,7.693-0.22c2.224,1.936,2.571,5.311,0.775,7.671c-0.275,0.362-0.612,0.68-0.936,1.003
			c-9.641,9.626-19.288,19.244-28.923,28.876c-6.541,6.539-13.056,13.105-19.6,19.641c-2.728,2.725-6.823,2.476-8.908-0.494
			c-1.611-2.296-1.303-5.274,0.81-7.393c4.002-4.011,8.021-8.005,12.037-12.001c0.205-0.204,0.455-0.363,0.802-0.637
			c-2.02-1.29-4.072-1.897-6.195-2.182c-10.944-1.465-20.314,5.549-22.006,16.42c-1.562,10.037,5.935,20.125,16.014,21.551
			c10.85,1.534,20.259-5.341,22.066-16.177c0.21-1.262,0.16-2.574,0.154-3.863c-0.016-3.294,2.32-5.874,5.45-5.965
			c3.255-0.095,5.602,2.141,5.813,5.542c0.95,15.271-10.385,29.241-25.547,31.487c-16.599,2.46-31.571-8.192-34.688-24.678
			C29.8,52.11,40.815,35.985,56.804,33.001c8.049-1.502,15.551-0.093,22.473,4.309c0.175,0.111,0.363,0.199,0.467,0.256
			c3.207-3.208,6.381-6.383,9.633-9.637c-2.467-1.967-5.232-3.621-8.184-4.963c-21.859-9.949-47.066-0.997-57.769,20.505
			c-8.351,16.777-4.785,37.526,8.788,50.618c9.383,9.05,20.689,13.118,33.658,12.354c20.031-1.18,37.129-16.878,40.153-36.646
			c1.38-9.02,0.192-17.647-3.669-25.922c-1.184-2.536-0.446-5.378,1.663-6.941c2.202-1.631,5.125-1.59,7.107,0.301
			c0.812,0.774,1.418,1.848,1.883,2.89c9.555,21.376,4.811,46.048-12.059,62.287c-9.933,9.562-21.856,14.755-35.642,15.355
			c-27.63,1.204-51.67-17.619-56.671-44.825c-3.52-19.146,1.909-35.87,15.718-49.633C33.36,14.333,44.378,9.259,57.042,7.972
			c14.707-1.495,27.925,2.385,39.67,11.338C96.974,19.51,97.246,19.696,97.511,19.888z"/>
	</g>
</g>
</svg>
