<?xml version="1.0" encoding="UTF-8" standalone="no"?>
<svg
   xmlns:dc="http://purl.org/dc/elements/1.1/"
   xmlns:cc="http://creativecommons.org/ns#"
   xmlns:rdf="http://www.w3.org/1999/02/22-rdf-syntax-ns#"
   xmlns:svg="http://www.w3.org/2000/svg"
   xmlns="http://www.w3.org/2000/svg"
   xmlns:sodipodi="http://sodipodi.sourceforge.net/DTD/sodipodi-0.dtd"
   xmlns:inkscape="http://www.inkscape.org/namespaces/inkscape"
   width="75"
   height="75"
   viewBox="0 0 75 75"
   fill="none"
   version="1.1"
   id="svg12"
   sodipodi:docname="la_hands-helping.svg"
   inkscape:version="1.0.1 (c497b03c, 2020-09-10)">
  <metadata
     id="metadata18">
    <rdf:RDF>
      <cc:Work
         rdf:about="">
        <dc:format>image/svg+xml</dc:format>
        <dc:type
           rdf:resource="http://purl.org/dc/dcmitype/StillImage" />
      </cc:Work>
    </rdf:RDF>
  </metadata>
  <defs
     id="defs16" />
  <sodipodi:namedview
     pagecolor="#ffffff"
     bordercolor="#666666"
     borderopacity="1"
     objecttolerance="10"
     gridtolerance="10"
     guidetolerance="10"
     inkscape:pageopacity="0"
     inkscape:pageshadow="2"
     inkscape:window-width="1500"
     inkscape:window-height="970"
     id="namedview14"
     showgrid="false"
     inkscape:zoom="5.2485307"
     inkscape:cx="46.938264"
     inkscape:cy="59.067306"
     inkscape:window-x="2280"
     inkscape:window-y="102"
     inkscape:window-maximized="0"
     inkscape:current-layer="svg12" />
  <path
     d="m 35.1563,44.2383 v -8.8821 m 0,8.8821 -0.1984,-0.0255 c -6e-4,0.0042 -0.0011,0.0084 -0.0016,0.0126 m 0.2,0.0129 c -0.05599,0.01326 -0.169027,-0.0109 -0.2,-0.0129 m -1.226148,4.465959 c -0.3576,0.1445 -2.613552,-0.05116 -2.805652,-0.04156 -0.0766,0.0038 -0.1572,0.0078 -0.2557,0.0208 z m -2.73859,-0.127952 c -0.2746,0.111 3.255919,0.460319 0,0 -0.602529,-0.08518 -0.03436,0.08479 -0.06706,0.08639 -0.072,0.0035 -0.1577,-0.192599 -0.2557,-0.180699 V 35.0859 h 10e-5 l -3e-4,-0.0088 c -0.1912,-4.3201 0.4834,-7.0794 1.4898,-8.9814 1.0061,-1.9014 2.3535,-2.9668 3.56,-3.8892 l 3e-4,-3e-4 c 0.1484,-0.114 0.3789,-0.2397 0.6976,-0.3869 0.3164,-0.146 0.7068,-0.3076 1.1683,-0.4959 0.0772,-0.0315 0.1564,-0.0637 0.2373,-0.0967 0.8851,-0.3604 1.9939,-0.8119 3.2786,-1.4144 l 3e-4,-10e-5 c 2.3252,-1.0949 5.196,-3.038 8.2739,-5.9909 l 11.9563,10.3845 -3.1131,4.596 -0.2053,0.2098 -0.0412,0.0421 -0.0118,0.0576 -0.0726,0.3536 -2.0517,6.085 C 54.774,35.13 53.665,34.8388 52.4377,34.8836 h -0.1439 -10e-4 L 37.5,34.9562 v 0.2 l -10e-4,-0.2 h 8e-4 -2.3435 v 0 c 0.06337,0.968813 0.438958,5.938915 -0.273192,9.345293 -0.574025,2.745698 -3.124733,4.601804 -3.891546,4.261914 z M 49.35,6.95294 49.2026,6.82485 49.071,6.96908 l -1.5375,1.68516 -3e-4,3.1e-4 c -3.4233,3.76815 -6.2393,5.44775 -8.5807,6.54645 -0.8206,0.3842 -1.5902,0.6721 -2.3372,0.9515 -0.3217,0.1203 -0.6391,0.239 -0.9546,0.3632 -1.0427,0.4104 -2.0461,0.8744 -3.0424,1.6372 l -10e-5,10e-5 c -2.0888,1.6013 -5.1144,4.6601 -6.4168,10.0968 -2.6953,0.6063 -4.6867,1.6546 -6.265,3.0192 -1.2192,1.0539 -2.2076,2.2235 -3.2594,3.4681 -0.3033,0.3589 -0.6119,0.724 -0.9328,1.0944 l -0.0102,0.0118 -0.0083,0.0132 c -0.0255,0.0408 -0.0323,0.081 -0.0339,0.108 -0.2579,0.2973 -0.5112,0.5962 -0.7638,0.8943 -1.7697,2.088 -3.5033,4.1335 -6.50382,5.2897 l -0.00236,9e-4 -1.46485,0.586 -0.12572,0.0503 v 0.1354 25.0476 0.2 h 0.2 44.67895 v 3e-4 l 0.0107,-6e-4 c 2.657,-0.1434 4.4827,-1.9828 5.5782,-3.7579 v -1e-4 c 1.094,-1.7741 1.6986,-3.6921 2.0043,-5.2653 0.3904,-1.9899 0.9402,-5.8414 1.3917,-9.1895 0.2259,-1.6754 0.4276,-3.2269 0.5727,-4.3594 0.0726,-0.5663 0.131,-1.0279 0.1713,-1.3479 l 0.0464,-0.3693 0.012,-0.0964 0.0015,-0.0123 0.0682,-0.1982 0.0109,-0.0316 V 43.507 43.2867 h 3e-4 l -5e-4,-0.0095 c -0.0758,-1.6005 -0.7217,-2.957 -1.5193,-4.1948 l 2.5976,-7.7188 4.1596,-6.2744 0.0025,-0.0037 1.1693,-1.6815 0.1006,-0.1446 -0.1307,-0.118 -1.5399,-1.3899 v 0 L 66.4146,21.7488 51.0351,8.41778 51.0349,8.4176 Z M 30.4688,48.5012 V 35.0859 c -0.3844,-8.6883 2.7093,-11.1891 5.1281,-13.0383 0.3619,-0.2781 1.1024,-0.5796 2.1493,-1.006 0.8852,-0.3604 1.9895,-0.8101 3.2694,-1.4104 2.3312,-1.0977 5.2281,-3.0626 8.3381,-6.0674 -22.080356,7.48262 -21.085033,21.051134 -18.8849,34.9374 z m -2.3438,5.405 c 0.0022,0.2 0.0023,0.2 0.0024,0.2 h 10e-5 5e-4 0.0017 l 0.0061,-1e-4 0.0229,-5e-4 c 0.02,-5e-4 0.0492,-0.0014 0.0871,-0.0028 0.0757,-0.003 0.1863,-0.0084 0.3271,-0.0182 0.2815,-0.0197 0.6842,-0.0571 1.1716,-0.1284 0.974,-0.1425 2.2903,-0.4205 3.6552,-0.9634 h 10e-5 c 2.7306,-1.087 6.053,-3.6417 6.6423,-8.1426 l 0.0017,-0.013 v -0.013 -4.7816 l 12.3976,-0.0715 h 0.0012 0.0715 v 3e-4 l 0.0109,-6e-4 c 0.976,-0.0535 1.9335,0.282 2.6627,0.9329 0.7237,0.6459 1.1641,1.5502 1.2269,2.5175 -0.0017,0.0107 -0.0032,0.0214 -0.0044,0.0303 l -4e-4,0.0028 c -0.0016,0.0116 -0.0035,0.0249 -0.0055,0.0395 -0.0029,0.0214 -0.0061,0.0458 -0.0097,0.0726 -0.0119,0.0902 -0.0271,0.2087 -0.043,0.3317 l -0.0065,0.0511 c -0.0176,0.1368 -0.0353,0.2743 -0.0495,0.382 h -9.4206 -0.2 v 0.2 4.6875 0.2 h 0.2 8.7797 c -0.1294,0.9212 -0.2525,1.6652 -0.3783,2.4251 -0.0965,0.5824 -0.1945,1.1742 -0.298,1.8624 h -8.1034 -0.2 v 0.2 4.6875 0.2 h 0.2 7.2869 c -0.2745,1.0248 -0.6893,2.0072 -1.233,2.9191 -0.6303,1.0271 -1.1313,1.3437 -1.5177,1.3684 H 11.9188 V 45.8956 c 3.5099,-1.8903 5.7927,-4.5222 7.3098,-6.2712 0.1145,-0.1321 0.2246,-0.2591 0.3306,-0.3803 v -1e-4 c 0.3906,-0.4472 0.7498,-0.866 1.0848,-1.2568 1.0336,-1.2053 1.8381,-2.1436 2.6307,-2.8244 0.3251,-0.278 0.7497,-0.5023 1.2274,-0.7069 0.3216,-0.1378 0.6567,-0.2624 0.9957,-0.3886 0.0694,-0.0258 0.1389,-0.0517 0.2086,-0.0777 -0.0135,0.107 -0.0316,0.2117 -0.0504,0.3206 -0.004,0.0232 -0.0081,0.0466 -0.0121,0.0703 -0.0396,0.2316 -0.0772,0.4812 -0.0626,0.7807 v 18.745 0.2 h 0.2 2.3437 0.0022 z"
     fill="#2474f5"
     stroke="#2474f5"
     stroke-width="0.4"
     id="path10"
     sodipodi:nodetypes="ccccccccccccscccccccccsccccccccccccccccccccscccccccccccccsccccccccccccccccccccccccccccccccccccccccccccccccccccsccccccccccscccccccscccscccccccccccccccccccccccccccccccccscccccccc" />
</svg>
