<svg width="53" height="53" viewBox="0 0 53 53" fill="none" xmlns="http://www.w3.org/2000/svg">
<path d="M36.7087 5.17419L37.0398 5.46139L47.7019 14.7107L47.8361 14.8271L47.7364 14.974L44.9268 19.1171L44.9167 19.132L44.9041 19.1448L44.7553 19.2966L44.7018 19.5573L44.6993 19.5694L44.6954 19.581L42.8441 25.0649L42.7758 25.2672L42.5784 25.1859C41.6258 24.7936 40.6608 24.5247 39.597 24.5641L39.5896 24.5643V24.5642L39.4618 24.5642L39.4609 24.5642L26.5643 24.6275L26.5633 24.6275L24.72 24.6275V32.3359V32.3487L24.7184 32.3614C24.5707 33.5095 24.1743 34.322 23.6035 34.9271C23.0364 35.5282 22.3105 35.9102 21.5298 36.2215L36.7087 5.17419ZM36.7087 5.17419V5.52949M36.7087 5.17419V5.52949M36.7087 5.52949C34.0289 8.1067 31.5397 9.78858 29.5434 10.7275C28.4325 11.2479 27.4742 11.6377 26.7024 11.9516C26.632 11.9802 26.5631 12.0082 26.4958 12.0357C26.0944 12.1992 25.7463 12.343 25.4617 12.4742C25.1798 12.6043 24.947 12.7278 24.7828 12.8538C23.7255 13.6612 22.4933 14.6302 21.5756 16.3626C20.6586 18.0937 20.0654 20.5663 20.2333 24.3707V36.2259V36.4733L20.4753 36.4214C20.6326 36.3877 20.7305 36.3828 20.8348 36.3776C20.8669 36.376 20.8995 36.3743 20.9347 36.3718C21.092 36.3606 21.2558 36.3321 21.5291 36.2219L36.7087 5.52949ZM38.9466 52.8H0.2V31.3244L1.34892 30.8654C1.34932 30.8652 1.34972 30.8651 1.35012 30.8649C4.06067 29.8213 5.63584 27.9629 7.17611 26.1456C7.40983 25.8698 7.64274 25.595 7.87869 25.3242L7.90243 25.2969L7.91513 25.2631C7.92374 25.2402 7.92714 25.2193 7.92848 25.2034C8.19754 24.8924 8.455 24.5882 8.70668 24.2908C9.62001 23.2116 10.4571 22.2224 11.4957 21.3257L11.4957 21.3257C12.8416 20.1635 14.5515 19.2672 16.9001 18.7553L17.0235 18.7284L17.0523 18.6054C18.1484 13.9115 20.7479 11.2867 22.5348 9.91843C23.3635 9.28473 24.2016 8.89582 25.0969 8.54385C25.3606 8.44016 25.631 8.33912 25.9079 8.23565C26.565 7.99012 27.2589 7.73084 27.9885 7.38961L27.9886 7.38954C30.0695 6.41429 32.5662 4.92375 35.5875 1.60198L36.7962 0.278875L38.1181 1.42658L38.1183 1.42676L51.5236 13.0327L51.5266 13.0354L52.7351 14.1249L51.8142 15.4475L51.8142 15.4475L51.8117 15.4512L48.1705 20.9371L48.156 20.959L48.1476 20.9839L45.8488 27.8066L45.8178 27.8986L45.8709 27.9798C46.5707 29.0514 47.1168 30.1859 47.1808 31.5121V31.6657L47.1264 31.8238L47.1196 31.8436L47.117 31.8643L47.1507 31.8685C47.117 31.8643 47.117 31.8644 47.117 31.8644L47.1169 31.8647L47.1168 31.8661L47.1161 31.8715L47.1134 31.8928L47.1029 31.9766L47.0626 32.2979C47.0275 32.5763 46.9765 32.978 46.9133 33.4708C46.7869 34.4564 46.6112 35.8065 46.4143 37.2645C46.0203 40.1829 45.5424 43.5252 45.2046 45.2448L45.2045 45.2452C44.9442 46.5834 44.4302 48.2082 43.5061 49.705C42.5799 51.2039 41.082 52.6825 38.9466 52.8ZM16.6754 23.1554L16.6806 22.8587L16.4036 22.9652C16.2659 23.0182 16.1239 23.071 15.9804 23.1243C15.6799 23.236 15.3727 23.3502 15.0842 23.4737C14.6554 23.6571 14.2444 23.8701 13.918 24.1489L13.9177 24.1491C13.2031 24.7623 12.4752 25.6102 11.5675 26.6678C11.2784 27.0045 10.9712 27.3624 10.6403 27.7408C10.5482 27.8461 10.4528 27.9559 10.3539 28.0697C9.01751 29.6081 7.04177 31.8825 3.99302 33.498L3.88667 33.5544V33.6748V48.9182V49.1182H4.08667H38.6967V49.1185L38.7081 49.1179C39.242 49.0874 39.77 48.6659 40.3342 47.7473L40.3355 47.7452C40.8669 46.8551 41.2623 45.8907 41.5084 44.8839L41.569 44.6364H41.3142H34.9367V40.9546H41.9517H42.1242L42.1495 40.784C42.2455 40.1372 42.3377 39.5806 42.4288 39.0304C42.5487 38.3065 42.6667 37.5935 42.7894 36.7L42.8206 36.4728H42.5913H34.9367V32.791H43.1021H43.2749L43.3 32.62C43.3117 32.5402 43.3383 32.333 43.364 32.1334L43.3699 32.0875C43.3837 31.9803 43.397 31.8777 43.4073 31.7999C43.4124 31.761 43.4168 31.7287 43.42 31.7054C43.4229 31.6848 43.4242 31.6774 43.4241 31.6774L43.4302 31.6527L43.4284 31.6221C43.3726 30.6735 42.9428 29.7857 42.2331 29.153C41.5248 28.5216 40.5954 28.1956 39.6476 28.246L39.5896 28.246L39.5884 28.246L28.6055 28.3093L28.4067 28.3104V28.5093V32.833C27.9121 36.5628 25.1535 38.6958 22.8503 39.6116C21.6948 40.0706 20.5773 40.3067 19.7478 40.4279C19.3333 40.4884 18.9917 40.5201 18.7544 40.5367C18.6357 40.545 18.5432 40.5495 18.4808 40.5519C18.4496 40.5531 18.4259 40.5538 18.4102 40.5542L18.3928 40.5546L18.39 40.5546H18.3887H16.5467V24.4275H16.5469L16.5464 24.4174C16.5353 24.1974 16.5622 24.0122 16.5959 23.815C16.5994 23.7948 16.6029 23.7744 16.6065 23.7538C16.6375 23.5752 16.6714 23.3797 16.6754 23.1554Z" fill="#2474F5" stroke="#2474F5" stroke-width="0.4"/>
</svg>
