<svg width="50" height="47" viewBox="0 0 50 47" fill="none" xmlns="http://www.w3.org/2000/svg">
<path d="M49.435 39.8007L29.1431 2.46006C28.7392 1.71588 28.1419 1.09451 27.4142 0.661531C26.6866 0.228548 25.8555 0 25.0088 0C24.162 0 23.331 0.228548 22.6033 0.661531C21.8756 1.09451 21.2783 1.71588 20.8744 2.46006L0.597091 39.8007C0.196107 40.5187 -0.00964634 41.3293 0.000347453 42.1516C0.0103412 42.9739 0.235733 43.7792 0.654048 44.4872C1.07236 45.1953 1.66898 45.7813 2.38441 46.1868C3.09984 46.5923 3.90909 46.8032 4.73144 46.7984H45.3007C46.1147 46.7976 46.9145 46.5856 47.622 46.1831C48.3295 45.7805 48.9205 45.2013 49.3371 44.502C49.7537 43.8028 49.9818 43.0073 49.999 42.1935C50.0161 41.3797 49.8218 40.5754 49.435 39.8591V39.8007ZM23.1388 11.7368C23.1388 11.1944 23.3543 10.6741 23.7379 10.2906C24.1214 9.90701 24.6416 9.69153 25.1841 9.69153C25.7265 9.69153 26.2467 9.90701 26.6303 10.2906C27.0139 10.6741 27.2293 11.1944 27.2293 11.7368V29.2676C27.2293 29.81 27.0139 30.3303 26.6303 30.7138C26.2467 31.0974 25.7265 31.3129 25.1841 31.3129C24.6416 31.3129 24.1214 31.0974 23.7379 30.7138C23.3543 30.3303 23.1388 29.81 23.1388 29.2676V11.7368ZM25.1841 40.7357C24.664 40.7357 24.1556 40.5815 23.7231 40.2925C23.2907 40.0036 22.9536 39.5929 22.7546 39.1124C22.5556 38.6319 22.5035 38.1031 22.605 37.5931C22.7064 37.083 22.9569 36.6144 23.3246 36.2466C23.6924 35.8789 24.161 35.6284 24.6711 35.527C25.1812 35.4255 25.7099 35.4776 26.1904 35.6766C26.6709 35.8756 27.0816 36.2127 27.3705 36.6451C27.6595 37.0776 27.8137 37.586 27.8137 38.1061C27.8137 38.4514 27.7457 38.7933 27.6135 39.1124C27.4814 39.4314 27.2877 39.7213 27.0435 39.9655C26.7993 40.2097 26.5094 40.4034 26.1904 40.5355C25.8713 40.6677 25.5294 40.7357 25.1841 40.7357Z" fill="white"/>
</svg>
